<svg width="49" height="48" viewBox="0 0 49 48" fill="none" xmlns="http://www.w3.org/2000/svg">
<path d="M35.5885 0.851852H4.44856C2.00185 0.851852 0 2.8537 0 5.30041V36.4403C0 38.887 2.00185 40.8889 4.44856 40.8889H35.5885C38.0352 40.8889 40.037 38.887 40.037 36.4403V5.30041C40.037 2.8537 38.0352 0.851852 35.5885 0.851852ZM24.4671 31.9918H8.89712V27.5432H24.4671V31.9918ZM31.1399 23.0947H8.89712V18.6461H31.1399V23.0947ZM31.1399 14.1975H8.89712V9.74897H31.1399V14.1975Z" fill="white"/>
<path d="M12.4403 33.607L12.2569 34.0741L12.4403 34.5411C15.1698 41.4918 21.9108 46.4259 29.8148 46.4259C37.7188 46.4259 44.4598 41.4918 47.1894 34.5411L47.3728 34.0741L47.1894 33.607C44.4598 26.6564 37.7188 21.7222 29.8148 21.7222C21.9108 21.7222 15.1698 26.6564 12.4403 33.607ZM29.8148 40.179C26.4637 40.179 23.7357 37.4479 23.7357 34.0741C23.7357 30.7003 26.4637 27.9691 29.8148 27.9691C33.1659 27.9691 35.8939 30.7003 35.8939 34.0741C35.8939 37.4479 33.1659 40.179 29.8148 40.179ZM29.8148 28.3667C26.6624 28.3667 24.1229 30.9215 24.1229 34.0741C24.1229 37.2266 26.6624 39.7815 29.8148 39.7815C32.9672 39.7815 35.5067 37.2266 35.5067 34.0741C35.5067 30.9215 32.9672 28.3667 29.8148 28.3667Z" fill="white" stroke="#00883D" stroke-width="2.55556"/>
</svg>
