<svg version="1.2" baseProfile="tiny-ps" xmlns="http://www.w3.org/2000/svg" viewBox="0 0 446 446" width="446" height="446">
	<title>add-documents-svgrepo-com-svg</title>
	<style>
		tspan { white-space:pre }
		.shp0 { fill: #4a7836 } 
	</style>
	<g id="Layer">
		<path id="Layer" class="shp0" d="M393.96 97.72L304.67 97.72L304.67 8.44L393.96 97.72Z" />
		<path id="Layer" class="shp0" d="M217.59 106.26L306.88 195.55L217.59 195.55L217.59 106.26Z" />
		<path id="Layer" class="shp0" d="M327.25 348.02L327.25 201.51C327.25 201.38 327.19 201.26 327.18 201.14C327.14 200.61 327.04 200.1 326.87 199.6C326.8 199.41 326.75 199.23 326.67 199.04C326.38 198.41 326.02 197.81 325.51 197.3L215.85 87.64C215.33 87.12 214.73 86.76 214.1 86.47C213.91 86.38 213.73 86.33 213.54 86.27C213.04 86.09 212.53 85.99 212 85.96C211.87 85.96 211.75 85.89 211.62 85.89L130.52 85.89L130.52 0L292.74 0L292.74 103.69C292.74 106.99 295.41 109.66 298.71 109.66L402.4 109.66L402.4 348.02L327.25 348.02L327.25 348.02Z" />
		<path id="Layer" fill-rule="evenodd" class="shp0" d="M315.32 207.48L315.32 445.84L43.44 445.84L43.44 97.82L205.66 97.82L205.66 201.51C205.66 204.81 208.33 207.48 211.63 207.48L315.32 207.48ZM227.86 265.86L185.35 265.86L185.35 223.35L173.41 223.35L173.41 265.86L130.9 265.86L130.9 277.79L173.41 277.79L173.41 320.31L185.35 320.31L185.35 277.79L227.86 277.79L227.86 265.86Z" />
	</g>
	<g id="Layer">
	</g>
	<g id="Layer">
	</g>
	<g id="Layer">
	</g>
	<g id="Layer">
	</g>
	<g id="Layer">
	</g>
	<g id="Layer">
	</g>
	<g id="Layer">
	</g>
	<g id="Layer">
	</g>
	<g id="Layer">
	</g>
	<g id="Layer">
	</g>
	<g id="Layer">
	</g>
	<g id="Layer">
	</g>
	<g id="Layer">
	</g>
	<g id="Layer">
	</g>
	<g id="Layer">
	</g>
</svg>