<svg width="25" height="22" viewBox="0 0 25 22" fill="none" xmlns="http://www.w3.org/2000/svg">
<g clip-path="url(#clip0_222_4)">
<path d="M19.312 1.64398H17.257V2.87698C17.2567 2.9859 17.2133 3.09029 17.1363 3.16731C17.0593 3.24433 16.9549 3.28772 16.846 3.28798H16.025C15.9161 3.28772 15.8117 3.24433 15.7347 3.16731C15.6577 3.09029 15.6143 2.9859 15.614 2.87698V1.64398H5.752V2.87698C5.75174 2.9859 5.70835 3.09029 5.63133 3.16731C5.55431 3.24433 5.44992 3.28772 5.341 3.28798H4.52C4.41108 3.28772 4.30669 3.24433 4.22967 3.16731C4.15265 3.09029 4.10926 2.9859 4.109 2.87698V1.64398H2.054C1.51042 1.64556 0.9895 1.86192 0.604756 2.24591C0.220013 2.62991 0.00263645 3.15041 0 3.69398V17.664C0.00158295 18.2083 0.218494 18.7298 0.603351 19.1146C0.988208 19.4995 1.50973 19.7164 2.054 19.718H19.312C19.8563 19.7164 20.3778 19.4995 20.7626 19.1146C21.1475 18.7298 21.3644 18.2083 21.366 17.664V3.69398C21.3634 3.15041 21.146 2.62991 20.7612 2.24591C20.3765 1.86192 19.8556 1.64556 19.312 1.64398V1.64398ZM19.725 17.052C19.7242 17.3241 19.6158 17.5849 19.4233 17.7773C19.2309 17.9697 18.9701 18.0782 18.698 18.079H2.671C2.39887 18.0782 2.1381 17.9697 1.94568 17.7773C1.75325 17.5849 1.64479 17.3241 1.644 17.052V7.80698C1.64426 7.69806 1.68765 7.59367 1.76467 7.51665C1.84169 7.43963 1.94608 7.39625 2.055 7.39598H19.312C19.4209 7.39625 19.5253 7.43963 19.6023 7.51665C19.6793 7.59367 19.7227 7.69806 19.723 7.80698L19.725 17.052Z" fill="#00883D"/>
<path d="M5.75301 0.411C5.75274 0.302077 5.70936 0.197691 5.63234 0.120671C5.55532 0.0436505 5.45093 0.000264056 5.34201 0H4.52001C4.41109 0.000264056 4.3067 0.0436505 4.22968 0.120671C4.15266 0.197691 4.10927 0.302077 4.10901 0.411V1.644H5.75301V0.411Z" fill="#00883D"/>
<path d="M17.258 0.411C17.2577 0.302077 17.2144 0.197691 17.1373 0.120671C17.0603 0.0436505 16.9559 0.000264056 16.847 0H16.025C15.9161 0.000264056 15.8117 0.0436505 15.7347 0.120671C15.6577 0.197691 15.6143 0.302077 15.614 0.411V1.644H17.258V0.411Z" fill="#00883D"/>
<path d="M16.397 18.787C19.3202 18.787 21.69 16.4172 21.69 13.494C21.69 10.5707 19.3202 8.20099 16.397 8.20099C13.4738 8.20099 11.104 10.5707 11.104 13.494C11.104 16.4172 13.4738 18.787 16.397 18.787Z" fill="white"/>
<path d="M16.4036 20.9527C12.1555 20.9527 8.69946 17.4967 8.69946 13.2486C8.69946 9.00054 12.1555 5.54449 16.4036 5.54449C20.6516 5.54449 24.1077 9.00054 24.1077 13.2486C24.1077 17.4967 20.6516 20.9527 16.4036 20.9527ZM15.7416 16.9316H17.0655V14.4106V13.9106H17.5655H20.0866V12.5867H17.5655H17.0655V12.0867V9.56557H15.7416V12.0867V12.5867H15.2416H12.7205V13.9106H15.2416H15.7416V14.4106V16.9316Z" fill="#00883D"/>
<path d="M16.4036 6.04449C12.4239 6.04449 9.19946 9.26892 9.19946 13.2486C9.19946 17.2283 12.4239 20.4527 16.4036 20.4527C20.3833 20.4527 23.6077 17.2283 23.6077 13.2486C23.6077 9.26892 20.3833 6.04449 16.4036 6.04449ZM20.238 14.4106H17.5655V17.0831C17.5655 17.2748 17.4087 17.4316 17.2169 17.4316H15.5902C15.3985 17.4316 15.2416 17.2748 15.2416 17.0831V14.4106H12.5691C12.3774 14.4106 12.2205 14.2537 12.2205 14.062V12.4352C12.2205 12.2435 12.3774 12.0867 12.5691 12.0867H15.2416V9.41416C15.2416 9.22243 15.3985 9.06557 15.5902 9.06557H17.2169C17.4087 9.06557 17.5655 9.22243 17.5655 9.41416V12.0867H20.238C20.4297 12.0867 20.5866 12.2435 20.5866 12.4352V14.062C20.5866 14.2537 20.4297 14.4106 20.238 14.4106ZM16.4036 5.04449C20.9273 5.04449 24.6077 8.72484 24.6077 13.2486C24.6077 17.7724 20.9273 21.4527 16.4036 21.4527C11.8798 21.4527 8.19946 17.7724 8.19946 13.2486C8.19946 8.72484 11.8798 5.04449 16.4036 5.04449ZM16.5655 10.0656H16.2416V13.0867H13.2205V13.4106H16.2416V16.4316H16.5655V13.4106H19.5866V13.0867H16.5655V10.0656Z" fill="white"/>
</g>
<defs>
<clipPath id="clip0_222_4">
<rect width="24.608" height="21.453" fill="white"/>
</clipPath>
</defs>
</svg>
