<svg xmlns="http://www.w3.org/2000/svg" width="24.608" height="21.453" viewBox="0 0 24.608 21.453">
  <g id="Group_1619" data-name="Group 1619" transform="translate(-1518 -516.773)">
    <g id="Icon_ionic-ios-calendar" data-name="Icon ionic-ios-calendar" transform="translate(1518 516.773)">
      <path id="Path_1445" data-name="Path 1445" d="M22.687,6.75H20.632V7.983a.412.412,0,0,1-.411.411H19.4a.412.412,0,0,1-.411-.411V6.75H9.127V7.983a.412.412,0,0,1-.411.411H7.895a.412.412,0,0,1-.411-.411V6.75H5.429A2.06,2.06,0,0,0,3.375,8.8v13.97a2.06,2.06,0,0,0,2.054,2.054H22.687a2.06,2.06,0,0,0,2.054-2.054V8.8A2.06,2.06,0,0,0,22.687,6.75ZM23.1,22.158a1.03,1.03,0,0,1-1.027,1.027H6.046a1.03,1.03,0,0,1-1.027-1.027V12.913a.412.412,0,0,1,.411-.411H22.687a.412.412,0,0,1,.411.411Z" transform="translate(-3.375 -5.106)" fill="#4a7836"/>
      <path id="Path_1446" data-name="Path 1446" d="M10.644,4.911a.412.412,0,0,0-.411-.411H9.411A.412.412,0,0,0,9,4.911V6.144h1.644Z" transform="translate(-4.891 -4.5)" fill="#4a7836"/>
      <path id="Path_1447" data-name="Path 1447" d="M26.394,4.911a.412.412,0,0,0-.411-.411h-.822a.412.412,0,0,0-.411.411V6.144h1.644Z" transform="translate(-9.136 -4.5)" fill="#4a7836"/>
    </g>
    <g id="Group_1618" data-name="Group 1618" transform="translate(1527.2 522.818)">
      <circle id="Ellipse_351" data-name="Ellipse 351" cx="5.293" cy="5.293" r="5.293" transform="translate(1.904 2.156)" fill="#fff"/>
      <g id="Icon_awesome-plus-circle" data-name="Icon awesome-plus-circle" transform="translate(-0.563 -0.563)" fill="#4a7836">
        <path d="M 7.766605377197266 15.47071552276611 C 3.518545389175415 15.47071552276611 0.06249537691473961 12.0146656036377 0.06249537691473961 7.766605377197266 C 0.06249537691473961 3.518545389175415 3.518545389175415 0.06249537691473961 7.766605377197266 0.06249537691473961 C 12.0146656036377 0.06249537691473961 15.47071552276611 3.518545389175415 15.47071552276611 7.766605377197266 C 15.47071552276611 12.0146656036377 12.0146656036377 15.47071552276611 7.766605377197266 15.47071552276611 Z M 7.104655265808105 11.44963550567627 L 8.428555488586426 11.44963550567627 L 8.428555488586426 8.928555488586426 L 8.428555488586426 8.428555488586426 L 8.928555488586426 8.428555488586426 L 11.44963550567627 8.428555488586426 L 11.44963550567627 7.104655265808105 L 8.928555488586426 7.104655265808105 L 8.428555488586426 7.104655265808105 L 8.428555488586426 6.604655265808105 L 8.428555488586426 4.083575248718262 L 7.104655265808105 4.083575248718262 L 7.104655265808105 6.604655265808105 L 7.104655265808105 7.104655265808105 L 6.604655265808105 7.104655265808105 L 4.083575248718262 7.104655265808105 L 4.083575248718262 8.428555488586426 L 6.604655265808105 8.428555488586426 L 7.104655265808105 8.428555488586426 L 7.104655265808105 8.928555488586426 L 7.104655265808105 11.44963550567627 Z" stroke="none"/>
        <path d="M 7.766605377197266 0.562495231628418 C 3.78691577911377 0.562495231628418 0.562495231628418 3.78691577911377 0.562495231628418 7.766605377197266 C 0.562495231628418 11.74629592895508 3.78691577911377 14.97071552276611 7.766605377197266 14.97071552276611 C 11.74629592895508 14.97071552276611 14.97071552276611 11.74629592895508 14.97071552276611 7.766605377197266 C 14.97071552276611 3.78691577911377 11.74629592895508 0.562495231628418 7.766605377197266 0.562495231628418 M 11.60105514526367 8.928555488586426 L 8.928555488586426 8.928555488586426 L 8.928555488586426 11.60105514526367 C 8.928555488586426 11.79277515411377 8.771696090698242 11.94963550567627 8.579975128173828 11.94963550567627 L 6.953235626220703 11.94963550567627 C 6.761515617370605 11.94963550567627 6.604655265808105 11.79277515411377 6.604655265808105 11.60105514526367 L 6.604655265808105 8.928555488586426 L 3.932165145874023 8.928555488586426 C 3.740435600280762 8.928555488586426 3.583575248718262 8.771696090698242 3.583575248718262 8.579975128173828 L 3.583575248718262 6.953235626220703 C 3.583575248718262 6.761515617370605 3.740435600280762 6.604655265808105 3.932165145874023 6.604655265808105 L 6.604655265808105 6.604655265808105 L 6.604655265808105 3.932165145874023 C 6.604655265808105 3.740435600280762 6.761515617370605 3.583575248718262 6.953235626220703 3.583575248718262 L 8.579975128173828 3.583575248718262 C 8.771696090698242 3.583575248718262 8.928555488586426 3.740435600280762 8.928555488586426 3.932165145874023 L 8.928555488586426 6.604655265808105 L 11.60105514526367 6.604655265808105 C 11.79277515411377 6.604655265808105 11.94963550567627 6.761515617370605 11.94963550567627 6.953235626220703 L 11.94963550567627 8.579975128173828 C 11.94963550567627 8.771696090698242 11.79277515411377 8.928555488586426 11.60105514526367 8.928555488586426 M 7.766605377197266 -0.437504768371582 C 12.29036521911621 -0.437504768371582 15.97071552276611 3.24284553527832 15.97071552276611 7.766605377197266 C 15.97071552276611 12.29036521911621 12.29036521911621 15.97071552276611 7.766605377197266 15.97071552276611 C 3.24284553527832 15.97071552276611 -0.437504768371582 12.29036521911621 -0.437504768371582 7.766605377197266 C -0.437504768371582 3.24284553527832 3.24284553527832 -0.437504768371582 7.766605377197266 -0.437504768371582 Z M 7.928555488586426 4.583575248718262 L 7.604655265808105 4.583575248718262 L 7.604655265808105 7.604655265808105 L 4.583575248718262 7.604655265808105 L 4.583575248718262 7.928555488586426 L 7.604655265808105 7.928555488586426 L 7.604655265808105 10.94963550567627 L 7.928555488586426 10.94963550567627 L 7.928555488586426 7.928555488586426 L 10.94963550567627 7.928555488586426 L 10.94963550567627 7.604655265808105 L 7.928555488586426 7.604655265808105 L 7.928555488586426 4.583575248718262 Z" stroke="none" fill="#fff"/>
      </g>
    </g>
  </g>
</svg>
