<?xml version="1.0" standalone="no"?>
<!DOCTYPE svg PUBLIC "-//W3C//DTD SVG 20010904//EN"
 "http://www.w3.org/TR/2001/REC-SVG-20010904/DTD/svg10.dtd">
<svg version="1.0" xmlns="http://www.w3.org/2000/svg"
 width="920.000000pt" height="920.000000pt" viewBox="0 0 920.000000 920.000000"
 preserveAspectRatio="xMidYMid meet">

<g transform="translate(0.000000,920.000000) scale(0.100000,-0.100000)"
fill="#FFFFFF" stroke="none">
<path d="M5740 9157 c-57 -226 -177 -446 -380 -697 -44 -55 -164 -194 -265
-310 -419 -478 -570 -700 -696 -1024 -105 -269 -180 -714 -164 -976 32 -549
287 -889 786 -1048 238 -76 419 -96 826 -89 l323 5 -5 -22 c-2 -11 -14 -70
-25 -131 -26 -129 -74 -282 -123 -389 -29 -62 -40 -76 -64 -81 -70 -16 -154
-48 -222 -86 -96 -53 -218 -171 -260 -249 l-32 -60 -49 50 c-96 98 -268 156
-435 147 -208 -12 -373 -123 -451 -303 l-27 -60 -61 13 c-276 58 -570 -103
-593 -323 l-6 -56 79 -77 c226 -218 616 -457 923 -566 252 -90 457 -123 666
-109 228 15 499 11 595 -9 111 -24 236 -84 284 -137 l37 -41 177 97 c97 53
474 259 837 456 363 198 664 364 668 368 13 12 -13 100 -51 173 -47 91 -145
194 -252 266 -261 175 -565 197 -837 60 -42 -21 -78 -38 -79 -36 -1 1 -13 30
-27 64 -72 177 -224 319 -401 374 l-72 22 33 111 c153 502 227 1129 227 1926
0 334 -2 390 -21 510 -55 351 -153 670 -333 1090 -95 221 -94 219 -74 195 9
-11 69 -94 134 -185 371 -518 526 -910 597 -1515 34 -287 21 -1101 -24 -1439
l-6 -49 84 6 c536 39 943 533 1019 1237 19 174 15 436 -9 574 -106 601 -537
1153 -1376 1760 -208 151 -213 155 -465 326 -124 84 -264 182 -312 216 l-88
63 -10 -42z"/>
<path d="M2051 3595 c-230 -33 -481 -113 -981 -313 -239 -95 -741 -311 -1003
-431 l-67 -31 0 -45 c0 -46 25 -100 599 -1270 105 -214 271 -553 369 -752 97
-199 181 -363 185 -363 5 0 126 73 270 162 144 89 296 179 338 200 144 71 301
98 456 79 138 -17 248 -53 458 -151 380 -176 564 -246 1300 -493 l540 -182
266 0 267 0 143 72 c79 40 263 144 409 231 146 87 524 313 840 502 1711 1022
2171 1303 2319 1418 238 185 396 390 431 559 17 78 7 181 -23 246 -32 70 -117
170 -180 212 -143 94 -349 81 -655 -41 -283 -113 -1037 -522 -1641 -891 -229
-140 -212 -124 -193 -175 11 -31 15 -81 15 -178 1 -195 -31 -299 -128 -428
-143 -190 -435 -331 -767 -372 -65 -8 -311 -10 -823 -8 -701 4 -733 5 -815 25
-264 66 -526 204 -795 418 -95 76 -298 265 -292 272 2 2 67 -21 143 -51 368
-142 763 -248 1029 -275 50 -5 392 -9 761 -10 628 -1 678 0 788 19 342 58 516
183 516 370 0 284 -204 375 -855 381 -299 3 -510 30 -739 95 -225 65 -399 150
-584 287 -126 94 -616 436 -762 532 -347 228 -563 335 -750 371 -113 22 -270
25 -389 9z"/>
</g>
</svg>
