<svg width="27" height="20" viewBox="0 0 27 20" fill="none" xmlns="http://www.w3.org/2000/svg">
<g clip-path="url(#clip0_222_15)">
<path d="M17.021 9.72698C17.9828 9.72698 18.923 9.44177 19.7227 8.90742C20.5225 8.37306 21.1458 7.61357 21.5138 6.72497C21.8819 5.83637 21.9782 4.85858 21.7906 3.91525C21.6029 2.97192 21.1398 2.10542 20.4597 1.42532C19.7796 0.745215 18.9131 0.28206 17.9697 0.09442C17.0264 -0.0932199 16.0486 0.00308347 15.16 0.371152C14.2714 0.739221 13.5119 1.36252 12.9776 2.16224C12.4432 2.96196 12.158 3.90217 12.158 4.86398C12.1579 5.50263 12.2836 6.13506 12.5279 6.72512C12.7722 7.31519 13.1304 7.85134 13.582 8.30293C14.0336 8.75453 14.5698 9.11273 15.1599 9.35707C15.7499 9.60141 16.3823 9.72711 17.021 9.72698ZM6.079 7.29498V3.64698H3.647V7.29398H0V9.72598H3.647V13.373H6.079V9.72698H9.726V7.29498H6.079ZM17.021 12.158C13.775 12.158 7.294 13.787 7.294 17.021V19.453H26.748V17.021C26.748 13.787 20.268 12.158 17.021 12.158Z" fill="#00883D"/>
</g>
<defs>
<clipPath id="clip0_222_15">
<rect width="26.748" height="19.453" fill="white"/>
</clipPath>
</defs>
</svg>
