<svg width="20" height="22" viewBox="0 0 20 22" fill="none" xmlns="http://www.w3.org/2000/svg">
<g clip-path="url(#clip0_222_17)">
<path d="M10.116 4.814H14.542C14.574 4.81427 14.6057 4.80817 14.6353 4.79605C14.6649 4.78393 14.6918 4.76604 14.7144 4.74342C14.737 4.72081 14.7549 4.69391 14.767 4.66431C14.7792 4.63471 14.7853 4.60299 14.785 4.571V4.571C14.786 4.35844 14.7399 4.14829 14.6499 3.95568C14.56 3.76306 14.4286 3.59275 14.265 3.457L10.553 0.360002C10.272 0.1268 9.91816 -0.000577973 9.55299 1.97161e-06V1.97161e-06C9.50568 -0.000130004 9.45881 0.00909144 9.41507 0.0271364C9.37133 0.0451813 9.3316 0.0716939 9.29814 0.105149C9.26469 0.138605 9.23817 0.178343 9.22013 0.22208C9.20208 0.265817 9.19286 0.312689 9.19299 0.360002V3.89C9.19299 4.13489 9.29021 4.36976 9.46327 4.54302C9.63634 4.71627 9.87111 4.81374 10.116 4.814Z" fill="#00883D"/>
<path d="M7.927 3.89V0H1.556C1.14373 0.00131843 0.748719 0.165677 0.457198 0.457198C0.165677 0.74872 0.00131843 1.14373 0 1.556V17.896C0.00131843 18.3083 0.165677 18.7033 0.457198 18.9948C0.748719 19.2863 1.14373 19.4507 1.556 19.452H13.228C13.6408 19.4515 14.0366 19.2875 14.3287 18.9959C14.6209 18.7043 14.7857 18.3088 14.787 17.896V6.079H10.115C9.53486 6.07794 8.9788 5.84694 8.56867 5.43663C8.15854 5.02631 7.92779 4.47014 7.927 3.89V3.89Z" fill="#00883D"/>
<path d="M9.07602 20.9539C8.75163 20.9539 8.44666 20.8276 8.21729 20.5982L3.57374 15.9546C3.10026 15.4812 3.10025 14.7107 3.57372 14.2372L4.58402 13.2269C4.81336 12.9975 5.11833 12.8712 5.44273 12.8712C5.76713 12.8712 6.0721 12.9975 6.30146 13.2269L9.07603 16.0015L15.4226 9.65494C15.6519 9.42557 15.9569 9.29926 16.2813 9.29926C16.6057 9.29926 16.9106 9.42557 17.14 9.65494L18.1503 10.6652C18.6238 11.1387 18.6238 11.9091 18.1503 12.3826L9.93473 20.5982C9.70534 20.8276 9.40038 20.9539 9.07602 20.9539Z" fill="#00883D"/>
<path d="M9.07604 20.4539C9.25885 20.4539 9.44171 20.3842 9.58119 20.2447L17.7967 12.0291C18.0757 11.7501 18.0757 11.2978 17.7967 11.0188L16.7865 10.0085C16.5075 9.72951 16.0551 9.72951 15.7761 10.0085L9.07603 16.7086L5.9479 13.5805C5.66892 13.3015 5.21656 13.3015 4.93759 13.5805L3.9273 14.5908C3.64832 14.8698 3.64832 15.3221 3.9273 15.6011L8.57087 20.2447C8.71038 20.3842 8.89318 20.4539 9.07604 20.4539ZM9.07603 21.4539C8.61808 21.4539 8.18755 21.2756 7.86374 20.9517L3.22019 16.3082C2.55177 15.6398 2.55176 14.5521 3.22017 13.8837L4.23048 12.8734C4.55427 12.5495 4.9848 12.3712 5.44274 12.3712C5.90069 12.3712 6.33122 12.5495 6.65503 12.8734L9.07603 15.2944L15.069 9.30138C15.3928 8.97758 15.8234 8.79926 16.2813 8.79926C16.7393 8.79926 17.1698 8.97759 17.4936 9.30141L18.5039 10.3117C19.1723 10.9801 19.1723 12.0677 18.5039 12.7362L10.2883 20.9518C9.96443 21.2756 9.53393 21.4539 9.07603 21.4539Z" fill="white"/>
</g>
<defs>
<clipPath id="clip0_222_17">
<rect width="19.005" height="21.453" fill="white"/>
</clipPath>
</defs>
</svg>
