<svg xmlns="http://www.w3.org/2000/svg" width="19.005" height="21.453" viewBox="0 0 19.005 21.453">
  <g id="Group_1617" data-name="Group 1617" transform="translate(-1330.661 -304.383)">
    <g id="Icon_ionic-ios-document" data-name="Icon ionic-ios-document" transform="translate(1330.661 304.383)">
      <path id="Path_1443" data-name="Path 1443" d="M21.526,8.754h4.426a.241.241,0,0,0,.243-.243h0a1.439,1.439,0,0,0-.52-1.114L21.963,4.3a1.562,1.562,0,0,0-1-.36h0a.359.359,0,0,0-.36.36V7.83A.924.924,0,0,0,21.526,8.754Z" transform="translate(-11.41 -3.94)" fill="#4a7836"/>
      <path id="Path_1444" data-name="Path 1444" d="M15.24,7.828V3.938H8.869A1.561,1.561,0,0,0,7.313,5.494V21.834a1.561,1.561,0,0,0,1.556,1.556H20.541A1.561,1.561,0,0,0,22.1,21.834V10.017H17.428A2.192,2.192,0,0,1,15.24,7.828Z" transform="translate(-7.313 -3.938)" fill="#4a7836"/>
    </g>
    <g id="Icon_awesome-check" data-name="Icon awesome-check" transform="translate(1334.379 309.605)" fill="#4a7836">
      <path d="M 5.357979297637939 15.73188591003418 C 5.033589363098145 15.73188591003418 4.728619575500488 15.60555648803711 4.499249458312988 15.37615585327148 L -0.1443004608154297 10.73260593414307 C -0.6177804470062256 10.25913619995117 -0.6177904605865479 9.488706588745117 -0.1443204581737518 9.015206336975098 L 0.8659795522689819 8.004886627197266 C 1.095319509506226 7.775516510009766 1.400289535522461 7.649176120758057 1.724689483642578 7.649176120758057 C 2.049089431762695 7.649176120758057 2.354059457778931 7.775506496429443 2.583419561386108 8.00490665435791 L 5.357983112335205 10.77943420410156 L 11.70453929901123 4.432906150817871 C 11.93389987945557 4.203536510467529 12.23885917663574 4.077226161956787 12.5632495880127 4.077226161956787 C 12.88763999938965 4.077226161956787 13.19259929656982 4.203536510467529 13.42195987701416 4.432906150817871 L 14.43224906921387 5.443216323852539 C 14.90571975708008 5.916686058044434 14.90572929382324 6.687116146087646 14.43225955963135 7.160616397857666 L 6.216689586639404 15.37620639801025 C 5.98729944229126 15.60557651519775 5.682339668273926 15.73188591003418 5.357979297637939 15.73188591003418 Z" stroke="none"/>
      <path d="M 5.357983112335205 15.23188781738281 C 5.540791988372803 15.23188781738281 5.72365140914917 15.16212940216064 5.863139629364014 15.02265644073486 L 14.07868957519531 6.807076454162598 C 14.35766983032227 6.528076171875 14.35766983032227 6.075746059417725 14.07868957519531 5.79676628112793 L 13.06839942932129 4.786456108093262 C 12.7894287109375 4.507476806640625 12.33706951141357 4.507476806640625 12.05808925628662 4.786456108093262 L 5.357979297637939 11.48653602600098 L 2.229849576950073 8.358436584472656 C 1.95086932182312 8.079425811767578 1.498509526252747 8.079425811767578 1.219539523124695 8.358436584472656 L 0.2092495411634445 9.368745803833008 C -0.06973046064376831 9.647746086120605 -0.06973046064376831 10.10007667541504 0.2092495411634445 10.37905597686768 L 4.852819442749023 15.02262592315674 C 4.992326736450195 15.16214847564697 5.175129413604736 15.23188781738281 5.357983112335205 15.23188781738281 M 5.357979297637939 16.23188591003418 C 4.90002965927124 16.23188591003418 4.469499588012695 16.05354690551758 4.145689487457275 15.72970581054688 L -0.497860461473465 11.08616638183594 C -1.166280508041382 10.41774654388428 -1.166290521621704 9.330116271972656 -0.4978804588317871 8.661665916442871 L 0.5124295353889465 7.651336193084717 C 0.8362195491790771 7.327516078948975 1.266749501228333 7.149176120758057 1.724689483642578 7.149176120758057 C 2.182639598846436 7.149176120758057 2.613169431686401 7.327516078948975 2.936979532241821 7.651356220245361 L 5.357972621917725 10.07232666015625 L 11.35097980499268 4.079346179962158 C 11.67477989196777 3.75554633140564 12.10530948638916 3.577226161956787 12.5632495880127 3.577226161956787 C 13.02120971679688 3.577226161956787 13.45173931121826 3.755556344985962 13.7755298614502 4.079376220703125 L 14.78579998016357 5.089666366577148 C 15.45421981811523 5.758076190948486 15.4542293548584 6.845706462860107 14.78582000732422 7.514156341552734 L 6.570249557495117 15.72976589202881 C 6.246379375457764 16.05357551574707 5.815879344940186 16.23188591003418 5.357979297637939 16.23188591003418 Z" stroke="none" fill="#fff"/>
    </g>
  </g>
</svg>
