<svg version="1.2" baseProfile="tiny-ps" xmlns="http://www.w3.org/2000/svg" viewBox="0 0 301 301" width="301" height="301">
	<title>back-svgrepo-com (1)-svg</title>
	<style>
		tspan { white-space:pre }
		.shp0 { fill: #4a7836 } 
	</style>
	<g id="Layer">
		<g id="Layer">
			<path id="Layer" fill-rule="evenodd" class="shp0" d="M300 150C300 232.84 232.84 300 150 300C67.16 300 0 232.84 0 150C0 67.16 67.16 0 150 0C232.84 0 300 67.16 300 150ZM189.23 198.39L140.71 149.88L188.98 101.61C194.45 96.14 194.45 87.27 188.98 81.81C183.51 76.34 174.64 76.34 169.17 81.8L113.13 137.85C112.29 138.38 111.49 139 110.76 139.73C107.96 142.53 106.62 146.21 106.68 149.88C106.61 153.54 107.96 157.22 110.76 160.02C111.49 160.75 112.29 161.37 113.13 161.91L169.42 218.2C172.16 220.94 175.74 222.3 179.32 222.3C182.91 222.3 186.49 220.94 189.23 218.2C194.69 212.73 194.69 203.86 189.23 198.39Z" />
		</g>
	</g>
	<g id="Layer">
	</g>
	<g id="Layer">
	</g>
	<g id="Layer">
	</g>
	<g id="Layer">
	</g>
	<g id="Layer">
	</g>
	<g id="Layer">
	</g>
	<g id="Layer">
	</g>
	<g id="Layer">
	</g>
	<g id="Layer">
	</g>
	<g id="Layer">
	</g>
	<g id="Layer">
	</g>
	<g id="Layer">
	</g>
	<g id="Layer">
	</g>
	<g id="Layer">
	</g>
	<g id="Layer">
	</g>
</svg>