<svg width="16" height="16" viewBox="0 0 16 16" fill="none" xmlns="http://www.w3.org/2000/svg">
<path d="M15 12H13V10H12V12H10V13H12V15H13V13H15V12Z" fill="black"/>
<path d="M8 14H4V2H8V5C8.00079 5.26497 8.1064 5.51887 8.29377 5.70623C8.48113 5.8936 8.73503 5.99921 9 6H12V8H13V5C13.0018 4.93429 12.9893 4.86897 12.9634 4.80855C12.9375 4.74813 12.8988 4.69404 12.85 4.65L9.35 1.15C9.30598 1.10117 9.25189 1.06247 9.19147 1.03658C9.13104 1.01068 9.06572 0.9982 9 0.999998H4C3.73503 1.00079 3.48113 1.1064 3.29377 1.29377C3.1064 1.48113 3.00079 1.73503 3 2V14C3.00079 14.265 3.1064 14.5189 3.29377 14.7062C3.48113 14.8936 3.73503 14.9992 4 15H8V14ZM9 2.2L11.8 5H9V2.2Z" fill="black"/>
</svg>
