<svg width="15" height="16" viewBox="0 0 15 16" fill="none" xmlns="http://www.w3.org/2000/svg">
<path d="M10.3125 13.59L9.09844 12.295L8.4375 13L10.3125 15L14.0625 11L13.4016 10.295L10.3125 13.59Z" fill="#3360FF"/>
<path d="M7.03125 14H3.75V2H7.5V5C7.50074 5.26498 7.59975 5.51887 7.77541 5.70623C7.95106 5.8936 8.18909 5.99921 8.4375 6H11.25V9H12.1875V5C12.1892 4.93429 12.1774 4.86898 12.1532 4.80856C12.1289 4.74814 12.0926 4.69404 12.0469 4.65L8.76563 1.15C8.72436 1.10117 8.67365 1.06248 8.617 1.03658C8.56035 1.01068 8.49911 0.998204 8.4375 1H3.75C3.50159 1.00079 3.26356 1.1064 3.08791 1.29377C2.91225 1.48113 2.81324 1.73503 2.8125 2V14C2.81324 14.265 2.91225 14.5189 3.08791 14.7062C3.26356 14.8936 3.50159 14.9992 3.75 15H7.03125V14ZM8.4375 2.2L11.0625 5H8.4375V2.2Z" fill="#3360FF"/>
</svg>
