<svg version="1.2" baseProfile="tiny-ps" xmlns="http://www.w3.org/2000/svg" viewBox="0 0 512 512" width="512" height="512">
	<title>chat-svgrepo-com-svg</title>
	<style>
		tspan { white-space:pre }
		.s0 { fill: #4a7836 } 
		.s1 { fill: #2d2d2d } 
		.s2 { fill: #ffffff } 
		.s3 { fill: #8ad5dd } 
	</style>
	<path id="Layer" fill-rule="evenodd" class="s0" d="m398.1 17.07v477.87c0 9.43-7.64 17.07-17.07 17.07h-68.89c-9.43 0-17.07-7.64-17.07-17.07v-106.43c0-6.28-5.09-11.38-11.38-11.38h-67.4c-6.28 0-11.38 5.09-11.38 11.38v106.43c0 9.43-7.64 17.07-17.07 17.07h-68.89c-9.43 0-17.07-7.64-17.07-17.07v-477.87c0-9.43 7.64-17.07 17.07-17.07h262.06c9.43 0 17.07 7.64 17.07 17.07zm-163.66 267.64c0-9.43-7.64-17.07-17.07-17.07h-26.2c-9.43 0-17.07 7.64-17.07 17.07c0 9.43 7.64 17.07 17.07 17.07h26.2c9.43 0 17.07-7.64 17.07-17.07zm0-62.79c0-9.43-7.64-17.07-17.07-17.07h-26.2c-9.43 0-17.07 7.64-17.07 17.07c0 9.43 7.64 17.07 17.07 17.07h26.2c9.43 0 17.07-7.64 17.07-17.07zm0-62.79c0-9.43-7.64-17.07-17.07-17.07h-26.2c-9.43 0-17.07 7.64-17.07 17.07c0 9.43 7.64 17.07 17.07 17.07h26.2c9.43 0 17.07-7.64 17.07-17.07zm0-62.79c0-9.43-7.64-17.07-17.07-17.07h-26.2c-9.43 0-17.07 7.64-17.07 17.07c0 9.43 7.64 17.07 17.07 17.07h26.2c9.43 0 17.07-7.64 17.07-17.07zm91.47 188.37c0-9.43-7.64-17.07-17.07-17.07h-26.2c-9.43 0-17.07 7.64-17.07 17.07c0 9.43 7.64 17.07 17.07 17.07h26.21c9.43 0 17.07-7.64 17.07-17.07zm0-62.79c0-9.43-7.64-17.07-17.07-17.07h-26.2c-9.43 0-17.07 7.64-17.07 17.07c0 9.43 7.64 17.07 17.07 17.07h26.21c9.43 0 17.07-7.64 17.07-17.07zm0-62.79c0-9.43-7.64-17.07-17.07-17.07h-26.2c-9.43 0-17.07 7.64-17.07 17.07c0 9.43 7.64 17.07 17.07 17.07h26.21c9.43 0 17.07-7.64 17.07-17.07zm0-62.79c0-9.43-7.64-17.07-17.07-17.07h-26.2c-9.43 0-17.07 7.64-17.07 17.07c0 9.43 7.64 17.07 17.07 17.07h26.21c9.43 0 17.06-7.64 17.07-17.07z" />
	<g id="Layer">
		<path id="Layer" class="s1" d="m190.96 113.04c-24.97 0-45.16-20.19-45.16-45.16c0-24.97 20.19-45.16 45.16-45.16c24.97 0 45.16 20.19 45.16 45.16c0 24.97-20.19 45.16-45.16 45.16z" />
		<path id="Layer" class="s1" d="m188.81 218c0.31 0-89.4 0-89.4 0c0 0 0-9.77 0-51.87c0-42.11 45.77-42.72 45.77-42.72l43.63 94.59z" />
		<path id="Layer" class="s1" d="m193.09 218l43.63-94.59c0 0 45.77 0.61 45.77 42.72c0 42.1 0 51.87 0 51.87c0 0-89.71 0-89.4 0z" />
	</g>
	<g id="Layer">
		<path id="Layer" class="s2" d="m189.95 194.98l-31.43-69.57h31.43h31.42l-31.42 69.57z" />
		<path id="Layer" class="s2" d="m310.05 324.04c-24.97 0-45.16-20.19-45.16-45.16c0-24.97 20.19-45.16 45.16-45.16c24.97 0 45.16 20.19 45.16 45.16c0 24.97-20.19 45.16-45.16 45.16z" />
		<path id="Layer" class="s2" d="m307.91 429.04c0.31 0-89.4 0-89.4 0c0 0 0-9.77 0-51.87c0-42.11 45.77-42.72 45.77-42.72l43.63 94.59z" />
		<path id="Layer" class="s2" d="m312.18 429.04l43.64-94.59c0 0 45.77 0.61 45.77 42.72c0 42.1 0 51.87 0 51.87c0 0-89.71 0-89.41 0z" />
	</g>
	<path id="Layer" class="s3" d="m341.48 334.44l-31.43 69.57l-31.42-69.57h31.42h31.43z" />
	<g id="Layer">
	</g>
	<g id="Layer">
	</g>
	<g id="Layer">
	</g>
	<g id="Layer">
	</g>
	<g id="Layer">
	</g>
	<g id="Layer">
	</g>
	<g id="Layer">
	</g>
	<g id="Layer">
	</g>
	<g id="Layer">
	</g>
	<g id="Layer">
	</g>
	<g id="Layer">
	</g>
	<g id="Layer">
	</g>
	<g id="Layer">
	</g>
	<g id="Layer">
	</g>
	<g id="Layer">
	</g>
</svg>