<svg version="1.2" baseProfile="tiny-ps" xmlns="http://www.w3.org/2000/svg" viewBox="0 0 512 512" width="512" height="512">
	<title>chat-svgrepo-com-svg</title>
	<style>
		tspan { white-space:pre }
		.s0 { fill: #4a7836 } 
		.s1 { fill: #2d2d2d } 
		.s2 { fill: #ffffff } 
		.s3 { fill: #8ad5dd } 
	</style>
	<path id="Layer" fill-rule="evenodd" class="s0" d="m71.18 402.51h-71.18v-346.63h107.79c0 24.94 20.22 45.16 45.16 45.16c24.94 0 45.16-20.22 45.16-45.16h313.89v346.63h-322.06l-118.76 98.78v-98.78zm333.64-152.06l-43.63 94.59c-0.31 0 89.4 0 89.4 0c0 0 0-9.77 0-51.87c0-42.11-45.77-42.72-45.77-42.72zm-14.34 0h-62.86l31.43 69.57l31.43-69.57zm-76.59-55.54c0 24.94 20.22 45.16 45.16 45.16c24.94 0 45.16-20.22 45.16-45.16c0-24.94-20.22-45.16-45.16-45.16c-24.94 0-45.16 20.22-45.16 45.16zm-46.38 150.13c0 0 89.7 0 89.4 0l-43.63-94.59c0 0-45.77 0.61-45.77 42.72c0 42.1 0 51.87 0 51.87zm-112.42-139.03c-0.31 0 89.4 0 89.4 0c0 0 0-9.77 0-51.87c0-42.11-45.77-42.72-45.77-42.72l-43.63 94.59zm-33.57-94.59l31.43 69.57l31.43-69.57l-62.86 0zm29.29 94.59l-43.63-94.59c0 0-45.77 0.61-45.77 42.72c0 42.1 0 51.87 0 51.87c0 0 89.71 0 89.4 0z" />
	<g id="Layer">
		<path id="Layer" class="s1" d="m152.96 101.04c-24.97 0-45.16-20.19-45.16-45.16c0-24.97 20.19-45.16 45.16-45.16c24.97 0 45.16 20.19 45.16 45.16c0 24.97-20.19 45.16-45.16 45.16z" />
		<path id="Layer" class="s1" d="m150.81 206c0.31 0-89.4 0-89.4 0c0 0 0-9.77 0-51.87c0-42.11 45.77-42.72 45.77-42.72l43.63 94.59z" />
		<path id="Layer" class="s1" d="m155.09 206l43.63-94.59c0 0 45.77 0.61 45.77 42.72c0 42.1 0 51.87 0 51.87c0 0-89.71 0-89.4 0z" />
	</g>
	<g id="Layer">
		<path id="Layer" class="s2" d="m152.95 180.98l-31.43-69.57h31.43h31.42l-31.42 69.57z" />
		<path id="Layer" class="s2" d="m359.05 240.04c-24.97 0-45.16-20.19-45.16-45.16c0-24.97 20.19-45.16 45.16-45.16c24.97 0 45.16 20.19 45.16 45.16c0 24.97-20.19 45.16-45.16 45.16z" />
		<path id="Layer" class="s2" d="m356.91 345.04c0.31 0-89.4 0-89.4 0c0 0 0-9.77 0-51.87c0-42.11 45.77-42.72 45.77-42.72l43.63 94.59z" />
		<path id="Layer" class="s2" d="m361.18 345.04l43.64-94.59c0 0 45.77 0.61 45.77 42.72c0 42.1 0 51.87 0 51.87c0 0-89.71 0-89.41 0z" />
	</g>
	<path id="Layer" class="s3" d="m390.48 250.44l-31.43 69.57l-31.42-69.57h31.42h31.43z" />
	<g id="Layer">
	</g>
	<g id="Layer">
	</g>
	<g id="Layer">
	</g>
	<g id="Layer">
	</g>
	<g id="Layer">
	</g>
	<g id="Layer">
	</g>
	<g id="Layer">
	</g>
	<g id="Layer">
	</g>
	<g id="Layer">
	</g>
	<g id="Layer">
	</g>
	<g id="Layer">
	</g>
	<g id="Layer">
	</g>
	<g id="Layer">
	</g>
	<g id="Layer">
	</g>
	<g id="Layer">
	</g>
</svg>