<svg width="18" height="18" viewBox="0 0 18 18" fill="none" xmlns="http://www.w3.org/2000/svg">
<path d="M13.5 16.5H4.5C4.10218 16.5 3.72064 16.342 3.43934 16.0607C3.15804 15.7794 3 15.3978 3 15V3C3 2.60218 3.15804 2.22064 3.43934 1.93934C3.72064 1.65804 4.10218 1.5 4.5 1.5H9.75C9.75672 1.49912 9.76353 1.49912 9.77025 1.5H9.77475C9.78183 1.50221 9.78912 1.50372 9.7965 1.5045C9.8625 1.509 9.92775 1.52175 9.99075 1.54275H10.0223C10.0361 1.55244 10.0491 1.56322 10.0612 1.575C10.143 1.61133 10.2174 1.66215 10.281 1.725L14.781 6.225C14.8439 6.28859 14.8947 6.36304 14.931 6.44475C14.9375 6.46097 14.9433 6.47749 14.9482 6.49425L14.9557 6.51525C14.9768 6.5775 14.9887 6.64275 14.9925 6.70875C14.9932 6.71622 14.9949 6.72355 14.9977 6.7305V6.735C14.999 6.73992 14.9997 6.74494 15 6.75V15C15 15.3978 14.842 15.7794 14.5607 16.0607C14.2794 16.342 13.8978 16.5 13.5 16.5ZM10.818 10.5V14.25H11.523V12.72H12.618V12.0915H11.523V11.1307H12.75V10.5H10.818ZM8.043 10.5V14.25H8.9475C9.13484 14.2593 9.32187 14.2263 9.49478 14.1536C9.66768 14.0809 9.82206 13.9703 9.9465 13.83C10.2052 13.4999 10.3348 13.0869 10.311 12.6683V12.0608C10.3284 11.6465 10.1952 11.2399 9.936 10.9163C9.69225 10.6388 9.336 10.4858 8.96625 10.5H8.043ZM5.25 10.5V14.25H5.955V12.9307H6.4245C6.738 12.948 7.044 12.8318 7.2675 12.6113C7.48042 12.373 7.59089 12.0604 7.575 11.7413C7.58892 11.4144 7.47851 11.0944 7.266 10.8458C7.16218 10.7306 7.03417 10.6399 6.89113 10.5801C6.7481 10.5204 6.59361 10.493 6.43875 10.5H5.25ZM9.75 3V6.75H13.5L9.75 3ZM8.9595 13.6215H8.748V11.1307H9.0045C9.09414 11.1255 9.18367 11.1427 9.2649 11.181C9.34614 11.2193 9.41648 11.2773 9.4695 11.3498C9.57975 11.577 9.627 11.8298 9.606 12.0817V12.7335C9.6225 12.9735 9.57075 13.2135 9.456 13.4243C9.39545 13.4949 9.31861 13.5498 9.23211 13.5842C9.14561 13.6186 9.05205 13.6314 8.9595 13.6215ZM6.43875 12.3H5.95425V11.1307H6.4455C6.50583 11.1314 6.56501 11.1474 6.61748 11.1771C6.66995 11.2069 6.714 11.2495 6.7455 11.301C6.8265 11.4353 6.8655 11.5898 6.858 11.7465C6.8674 11.8924 6.82867 12.0373 6.74775 12.159C6.71097 12.2052 6.66382 12.242 6.61013 12.2665C6.55644 12.291 6.49772 12.3025 6.43875 12.3Z" fill="#287181"/>
</svg>
