<svg width="47" height="46" viewBox="0 0 47 46" fill="none" xmlns="http://www.w3.org/2000/svg"> <rect x="9" y="9" width="30" height="27" fill="white"/> <path d="M23.5 2.875C12.1447 2.875 2.9375 11.8863 2.9375 23C2.9375 34.1137 12.1447 43.125 23.5 43.125C34.8553 43.125 44.0625 34.1137 44.0625 23C44.0625 11.8863 34.8553 2.875 23.5 2.875ZM32.3813 16.4279L22.7151 29.5451C22.58 29.7297 22.4019 29.8801 22.1956 29.9838C21.9893 30.0875 21.7606 30.1416 21.5287 30.1416C21.2967 30.1416 21.0681 30.0875 20.8617 29.9838C20.6554 29.8801 20.4773 29.7297 20.3422 29.5451L14.6187 21.7826C14.4442 21.5445 14.6187 21.2121 14.917 21.2121H17.0696C17.5378 21.2121 17.983 21.4322 18.2584 21.8096L21.5264 26.2479L28.7416 16.4549C29.017 16.082 29.4576 15.8574 29.9304 15.8574H32.083C32.3813 15.8574 32.5558 16.1898 32.3813 16.4279Z" fill="#34A877"/> </svg>