<svg width="53" height="44" viewBox="0 0 53 44" fill="none" xmlns="http://www.w3.org/2000/svg">
<path d="M1.31117 12.0222L12.0445 1.28889C12.8667 0.466667 14.0001 0 15.1778 0H35.5556C38.0001 0 40.0001 2 40.0001 4.44444V35.5556C40.0001 38 38.0001 40 35.5556 40H4.4445C2.00006 40 6.10352e-05 38 6.10352e-05 35.5556V15.1778C6.10352e-05 14 0.466724 12.8667 1.31117 12.0222ZM31.1112 8.88889H15.5556V13.3333H31.1112V8.88889ZM8.88895 31.1111H31.1112V26.6667H8.88895V31.1111ZM8.88895 22.2222H31.1112V17.7778H8.88895V22.2222Z" fill="white"/>
<path d="M41.7668 28.0451L41.3928 27.6703H41.206C42.3396 25.8031 42.9914 23.6145 42.9914 21.2829C42.9914 14.4637 37.4638 8.93617 30.6446 8.93617C23.8255 8.93617 18.2979 14.4637 18.2979 21.2829C18.2979 28.1021 23.8255 33.6297 30.6446 33.6297C32.9762 33.6297 35.1648 32.9779 37.032 31.8443V32.0311L37.4068 32.4051L45.9223 40.9036L46.825 41.8045L47.7268 40.9027L50.2644 38.3651L51.1662 37.4633L50.2653 36.5606L41.7668 28.0451ZM30.6446 27.6703C27.109 27.6703 24.2573 24.8186 24.2573 21.2829C24.2573 17.7472 27.109 14.8956 30.6446 14.8956C34.1803 14.8956 37.032 17.7472 37.032 21.2829C37.032 24.8186 34.1803 27.6703 30.6446 27.6703Z" fill="white" stroke="#00883D" stroke-width="2.55319"/>
</svg>
