<svg width="54" height="40" viewBox="0 0 54 40" fill="none" xmlns="http://www.w3.org/2000/svg">
<path d="M35.5556 0H4.44444C2 0 0 2 0 4.44444V35.5556C0 38 2 40 4.44444 40H35.5556C38 40 40 38 40 35.5556V4.44444C40 2 38 0 35.5556 0ZM24.4444 31.1111H8.88889V26.6667H24.4444V31.1111ZM31.1111 22.2222H8.88889V17.7778H31.1111V22.2222ZM31.1111 13.3333H8.88889V8.88889H31.1111V13.3333Z" fill="white"/>
<path d="M19.5228 25.9067L19.1489 26.2806V26.8094V33.1915V34.4681H20.4255H26.8076H27.3364L27.7103 34.0942L46.5332 15.2713L47.4359 14.3686L46.5332 13.4659L40.1511 7.08379L39.2485 6.1811L38.3458 7.08379L19.5228 25.9067ZM47.4863 2.14831L46.593 3.04159L47.4863 2.14831C46.324 0.986027 44.4435 0.986026 43.2812 2.14831L40.1668 5.26277L39.2641 6.16546L40.1668 7.06815L46.5489 13.4502L47.4516 14.3529L48.3543 13.4502L51.4687 10.3358C52.631 9.1735 52.631 7.29301 51.4687 6.13073L47.4863 2.14831Z" fill="white" stroke="#00883D" stroke-width="2.55319"/>
</svg>
