<svg version="1.2" baseProfile="tiny-ps" xmlns="http://www.w3.org/2000/svg" viewBox="0 0 32 32" width="32" height="32">
	<title>documents-transference-symbol-svgrepo-com-svg</title>
	<style>
		tspan { white-space:pre }
		.shp0 { fill: #4a7836 } 
	</style>
	<g id="Layer">
		<g id="Layer">
			<path id="Layer" class="shp0" d="M28.63 0C29.63 0 30.45 0.82 30.45 1.83L30.45 21.29C30.45 22.3 29.64 23.12 28.63 23.12L21.46 23.12L21.46 21.04L28.38 21.04L28.38 2.08L14.12 2.08L14.12 7.06L12.04 7.06L12.04 1.83C12.04 0.82 12.86 0 13.87 0L28.63 0Z" />
			<path id="Layer" class="shp0" d="M26.76 17.65C26.76 18.22 26.3 18.69 25.72 18.69L21.45 18.69L21.45 16.61L25.72 16.61C26.3 16.61 26.76 17.07 26.76 17.65Z" />
			<path id="Layer" class="shp0" d="M21.45 14.67L21.45 13.68L20.39 12.59L25.89 12.59C26.47 12.59 26.94 13.06 26.94 13.63C26.94 14.21 26.47 14.67 25.89 14.67L21.45 14.67L21.45 14.67Z" />
			<path id="Layer" class="shp0" d="M26.94 9.62C26.94 10.2 26.47 10.66 25.89 10.66L18.45 10.66L16.38 8.62C16.47 8.59 16.57 8.58 16.67 8.58L25.9 8.58C26.47 8.58 26.94 9.04 26.94 9.62Z" />
			<path id="Layer" class="shp0" d="M26.94 5.61C26.94 6.18 26.47 6.64 25.9 6.64L16.67 6.64C16.09 6.64 15.63 6.18 15.63 5.61C15.63 5.03 16.09 4.57 16.67 4.57L25.9 4.57C26.47 4.57 26.94 5.03 26.94 5.61Z" />
			<path id="Layer" fill-rule="evenodd" class="shp0" d="M3.35 8.72L12.57 8.72C13.47 8.72 14.34 9.08 14.98 9.72L18.95 13.74C19.58 14.37 19.93 15.23 19.93 16.12L19.93 30.15C19.93 31.16 19.12 31.98 18.11 31.98L3.35 31.98C2.34 31.98 1.52 31.16 1.52 30.15L1.52 10.55C1.52 9.54 2.34 8.72 3.35 8.72ZM3.6 29.9L17.86 29.9L17.86 16.2L17.82 16.2L13.81 16.22C13.45 16.22 13.11 16.08 12.85 15.83C12.6 15.58 12.46 15.23 12.46 14.88L12.46 10.94L3.6 10.94L3.6 29.9ZM16.37 14.12L16.37 14.12L14.54 12.34L14.54 14.15L16.37 14.12Z" />
			<path id="Layer" class="shp0" d="M5.08 14.33C5.08 13.75 5.55 13.29 6.13 13.29L9.02 13.29C9.6 13.29 10.07 13.75 10.07 14.33C10.07 14.9 9.6 15.36 9.02 15.36L6.13 15.36C5.55 15.36 5.08 14.9 5.08 14.33Z" />
			<path id="Layer" class="shp0" d="M16.4 18.34C16.4 18.92 15.93 19.38 15.35 19.38L6.13 19.38C5.55 19.38 5.08 18.92 5.08 18.34C5.08 17.76 5.55 17.3 6.13 17.3L15.35 17.3C15.93 17.3 16.4 17.76 16.4 18.34Z" />
			<path id="Layer" class="shp0" d="M16.4 22.28C16.4 22.86 15.93 23.39 15.35 23.39L6.13 23.39C5.55 23.39 5.08 22.86 5.08 22.28C5.08 21.71 5.55 21.18 6.13 21.18L15.35 21.18C15.93 21.18 16.4 21.71 16.4 22.28Z" />
			<path id="Layer" class="shp0" d="M16.4 26.23C16.4 26.81 15.93 27.27 15.35 27.27L6.13 27.27C5.55 27.27 5.08 26.81 5.08 26.23C5.08 25.65 5.55 25.19 6.13 25.19L15.35 25.19C15.93 25.19 16.4 25.65 16.4 26.23Z" />
			<path id="Layer" class="shp0" d="M2.64 7.08C2.54 6.56 2.48 5.36 3.5 4.05C4.86 2.29 7.5 1.83 7.5 1.83L7.49 0.93C7.49 0.81 7.56 0.7 7.67 0.65C7.78 0.6 7.91 0.62 8 0.7L10.5 2.83C10.66 2.97 10.75 3.16 10.76 3.37C10.76 3.58 10.67 3.78 10.52 3.92L8.03 6.23C7.94 6.31 7.79 6.34 7.68 6.29C7.57 6.24 7.48 6.13 7.48 6.01L7.48 4.86C7.48 4.86 6.8 4.49 5.11 5.04C3.82 5.45 3.27 6.58 3.06 7.09C3 7.25 2.98 7.34 2.98 7.34L2.98 7.34C2.82 7.34 2.69 7.24 2.65 7.09C2.65 7.08 2.64 7.09 2.64 7.08Z" />
			<path id="Layer" class="shp0" d="M29.75 25.08C29.85 25.6 29.91 26.83 28.89 28.14C27.53 29.89 24.9 30.35 24.9 30.35L24.9 31.25C24.9 31.37 24.83 31.48 24.72 31.53C24.62 31.58 24.49 31.56 24.4 31.48L21.89 29.35C21.74 29.21 21.64 29.02 21.64 28.81C21.63 28.6 21.72 28.4 21.87 28.26L24.37 25.95C24.46 25.86 24.6 25.84 24.71 25.89C24.82 25.94 24.92 26.05 24.92 26.17L24.92 27.32C24.92 27.32 25.59 27.66 27.28 27.12C28.97 26.57 29.42 24.77 29.42 24.77L29.42 24.77C29.58 24.77 29.72 24.91 29.75 25.08Z" />
		</g>
	</g>
	<g id="Layer">
	</g>
	<g id="Layer">
	</g>
	<g id="Layer">
	</g>
	<g id="Layer">
	</g>
	<g id="Layer">
	</g>
	<g id="Layer">
	</g>
	<g id="Layer">
	</g>
	<g id="Layer">
	</g>
	<g id="Layer">
	</g>
	<g id="Layer">
	</g>
	<g id="Layer">
	</g>
	<g id="Layer">
	</g>
	<g id="Layer">
	</g>
	<g id="Layer">
	</g>
	<g id="Layer">
	</g>
</svg>