<?xml version="1.0" encoding="iso-8859-1"?>
<!-- Generator: Adobe Illustrator 17.1.0, SVG Export Plug-In . SVG Version: 6.00 Build 0)  -->
<!DOCTYPE svg PUBLIC "-//W3C//DTD SVG 1.1//EN" "http://www.w3.org/Graphics/SVG/1.1/DTD/svg11.dtd">
<svg version="1.1" id="Capa_1" xmlns="http://www.w3.org/2000/svg" xmlns:xlink="http://www.w3.org/1999/xlink" x="0px" y="0px"
	 viewBox="0 0 201.914 201.914" style="enable-background:new 0 0 201.914 201.914;" xml:space="preserve">
<path d="M174.008,0H56.307c-4.142,0-7.5,3.358-7.5,7.5v20.393H27.906c-4.142,0-7.5,3.358-7.5,7.5v159.021c0,4.142,3.358,7.5,7.5,7.5
	H145.9c4.142,0,7.5-3.358,7.5-7.5v-16.603h20.608c4.142,0,7.5-3.358,7.5-7.5V7.5C181.508,3.358,178.15,0,174.008,0z
	 M124.536,149.754H49.269c-4.142,0-7.5-3.358-7.5-7.5s3.358-7.5,7.5-7.5h75.268c4.142,0,7.5,3.358,7.5,7.5
	S128.678,149.754,124.536,149.754z M124.536,101.097H49.269c-4.142,0-7.5-3.358-7.5-7.5s3.358-7.5,7.5-7.5h75.268
	c4.142,0,7.5,3.358,7.5,7.5S128.678,101.097,124.536,101.097z M124.536,63.387H49.269c-4.142,0-7.5-3.358-7.5-7.5s3.358-7.5,7.5-7.5
	h75.268c4.142,0,7.5,3.358,7.5,7.5S128.678,63.387,124.536,63.387z M166.508,162.811H153.4V35.393c0-4.142-3.358-7.5-7.5-7.5H63.807
	V15h102.701V162.811z"/>
<g>
</g>
<g>
</g>
<g>
</g>
<g>
</g>
<g>
</g>
<g>
</g>
<g>
</g>
<g>
</g>
<g>
</g>
<g>
</g>
<g>
</g>
<g>
</g>
<g>
</g>
<g>
</g>
<g>
</g>
</svg>
