<svg version="1.2" baseProfile="tiny-ps" xmlns="http://www.w3.org/2000/svg" viewBox="0 0 202 202" width="202" height="202">
	<title>documents-svgrepo-com-svg</title>
	<style>
		tspan { white-space:pre }
		.shp0 { fill: #d52e2e } 
	</style>
	<path id="Layer" fill-rule="evenodd" class="shp0" d="M181.51 7.5L181.51 170.31C181.51 174.45 178.15 177.81 174.01 177.81L153.4 177.81L153.4 194.41C153.4 198.56 150.04 201.91 145.9 201.91L27.91 201.91C23.76 201.91 20.41 198.56 20.41 194.41L20.41 35.39C20.41 31.25 23.76 27.89 27.91 27.89L48.81 27.89L48.81 7.5C48.81 3.36 52.16 0 56.31 0L174.01 0C178.15 0 181.51 3.36 181.51 7.5ZM132.04 142.25C132.04 138.11 128.68 134.75 124.54 134.75L49.27 134.75C45.13 134.75 41.77 138.11 41.77 142.25C41.77 146.4 45.13 149.75 49.27 149.75L124.54 149.75C128.68 149.75 132.04 146.4 132.04 142.25ZM132.04 93.6C132.04 89.45 128.68 86.1 124.54 86.1L49.27 86.1C45.13 86.1 41.77 89.45 41.77 93.6C41.77 97.74 45.13 101.1 49.27 101.1L124.54 101.1C128.68 101.1 132.04 97.74 132.04 93.6ZM132.04 55.89C132.04 51.74 128.68 48.39 124.54 48.39L49.27 48.39C45.13 48.39 41.77 51.74 41.77 55.89C41.77 60.03 45.13 63.39 49.27 63.39L124.54 63.39C128.68 63.39 132.04 60.03 132.04 55.89ZM166.51 162.81L166.51 15L63.81 15L63.81 27.89L145.9 27.89C150.04 27.89 153.4 31.25 153.4 35.39L153.4 162.81L166.51 162.81Z" />
	<g id="Layer">
	</g>
	<g id="Layer">
	</g>
	<g id="Layer">
	</g>
	<g id="Layer">
	</g>
	<g id="Layer">
	</g>
	<g id="Layer">
	</g>
	<g id="Layer">
	</g>
	<g id="Layer">
	</g>
	<g id="Layer">
	</g>
	<g id="Layer">
	</g>
	<g id="Layer">
	</g>
	<g id="Layer">
	</g>
	<g id="Layer">
	</g>
	<g id="Layer">
	</g>
	<g id="Layer">
	</g>
</svg>