<svg width="20" height="29" viewBox="0 0 20 29" fill="none" xmlns="http://www.w3.org/2000/svg">
<path d="M11.6667 7.70312V0H1.25C0.557292 0 0 0.606055 0 1.35938V27.6406C0 28.3939 0.557292 29 1.25 29H18.75C19.4427 29 20 28.3939 20 27.6406V9.0625H12.9167C12.2292 9.0625 11.6667 8.45078 11.6667 7.70312ZM15.0615 19.9381H11.6667V24.4693C11.6667 24.97 11.2937 25.3756 10.8333 25.3756H9.16667C8.70625 25.3756 8.33333 24.97 8.33333 24.4693V19.9381H4.93854C4.19479 19.9381 3.82344 18.9587 4.35156 18.3884L9.37344 12.9679C9.71979 12.5935 10.2792 12.5935 10.6255 12.9679L15.6474 18.3884C16.176 18.9587 15.8052 19.9381 15.0615 19.9381ZM19.6354 5.94727L14.5365 0.396484C14.3021 0.141602 13.9844 0 13.651 0H13.3333V7.25H20V6.90449C20 6.54766 19.8698 6.20215 19.6354 5.94727Z" fill="white"/>
</svg>
