<svg width="20" height="20" viewBox="0 0 20 20" fill="none" xmlns="http://www.w3.org/2000/svg">
<path d="M6 2C5.46957 2 4.96086 2.21071 4.58579 2.58579C4.21071 2.96086 4 3.46957 4 4V9.207C4.32688 9.11447 4.66165 9.05254 5 9.022V4C5 3.73478 5.10536 3.48043 5.29289 3.29289C5.48043 3.10536 5.73478 3 6 3H10V6.5C10 6.89782 10.158 7.27936 10.4393 7.56066C10.7206 7.84196 11.1022 8 11.5 8H15V16C15 16.2652 14.8946 16.5196 14.7071 16.7071C14.5196 16.8946 14.2652 17 14 17H10.4C10.218 17.3562 9.99767 17.6915 9.743 18H14C14.5304 18 15.0391 17.7893 15.4142 17.4142C15.7893 17.0391 16 16.5304 16 16V7.414C15.9997 7.01631 15.8414 6.63503 15.56 6.354L11.646 2.439C11.3648 2.15798 10.9835 2.00008 10.586 2H6ZM14.793 7H11.5C11.3674 7 11.2402 6.94732 11.1464 6.85355C11.0527 6.75979 11 6.63261 11 6.5V3.207L14.793 7ZM5.5 19C6.69347 19 7.83807 18.5259 8.68198 17.682C9.52589 16.8381 10 15.6935 10 14.5C10 13.3065 9.52589 12.1619 8.68198 11.318C7.83807 10.4741 6.69347 10 5.5 10C4.30653 10 3.16193 10.4741 2.31802 11.318C1.47411 12.1619 1 13.3065 1 14.5C1 15.6935 1.47411 16.8381 2.31802 17.682C3.16193 18.5259 4.30653 19 5.5 19ZM3.146 14.854C3.05211 14.7601 2.99937 14.6328 2.99937 14.5C2.99937 14.3672 3.05211 14.2399 3.146 14.146C3.23989 14.0521 3.36722 13.9994 3.5 13.9994C3.63278 13.9994 3.76011 14.0521 3.854 14.146L5 15.293V12.5C5 12.3674 5.05268 12.2402 5.14645 12.1464C5.24021 12.0527 5.36739 12 5.5 12C5.63261 12 5.75979 12.0527 5.85355 12.1464C5.94732 12.2402 6 12.3674 6 12.5V15.293L7.146 14.146C7.23989 14.0521 7.36722 13.9994 7.5 13.9994C7.63278 13.9994 7.76011 14.0521 7.854 14.146C7.94789 14.2399 8.00063 14.3672 8.00063 14.5C8.00063 14.6328 7.94789 14.7601 7.854 14.854L5.854 16.854C5.76079 16.947 5.63466 16.9994 5.503 17H5.497C5.36667 16.9992 5.2418 16.9475 5.149 16.856L5.146 16.853L3.146 14.853V14.854Z" fill="black"/>
</svg>
