<?xml version="1.0" standalone="no"?>
<!DOCTYPE svg PUBLIC "-//W3C//DTD SVG 20010904//EN"
 "http://www.w3.org/TR/2001/REC-SVG-20010904/DTD/svg10.dtd">
<svg version="1.0" xmlns="http://www.w3.org/2000/svg"
 width="512.000000pt" height="512.000000pt" viewBox="0 0 512.000000 512.000000"
 preserveAspectRatio="xMidYMid meet">

<g transform="translate(0.000000,512.000000) scale(0.100000,-0.100000)"
fill="#00883D" stroke="none">
<path d="M2421 4994 c-127 -34 -257 -134 -320 -246 l-33 -58 -204 0 c-218 0
-252 -6 -302 -53 -53 -49 -66 -93 -70 -232 -5 -175 6 -224 67 -285 33 -33 60
-50 93 -58 34 -9 282 -12 911 -12 981 0 936 -3 1006 76 53 60 64 113 60 279
-4 116 -7 135 -29 175 -14 24 -44 58 -68 75 l-44 30 -218 3 -219 3 -32 57
c-64 114 -194 213 -324 247 -73 19 -202 18 -274 -1z"/>
<path d="M883 4470 c-58 -13 -137 -66 -175 -115 -74 -97 -69 70 -66 -2080 l3
-1930 28 -57 c30 -62 83 -115 149 -150 l43 -23 1695 0 1695 0 43 23 c66 35
119 88 149 150 l28 57 0 1950 0 1950 -27 51 c-40 76 -70 107 -140 145 l-63 34
-202 3 -203 4 0 -126 c0 -69 -5 -149 -11 -178 -34 -157 -170 -294 -327 -327
-36 -8 -331 -11 -945 -11 -973 0 -952 -1 -1059 57 -58 32 -138 113 -168 174
-39 75 -50 136 -50 277 l0 132 -182 -1 c-101 -1 -197 -4 -215 -9z m780 -1400
c38 -30 52 -80 33 -123 -15 -37 -59 -67 -96 -67 -37 0 -81 30 -96 67 -29 68
21 143 96 143 22 0 48 -8 63 -20z m1920 0 c38 -30 52 -80 33 -123 -29 -71 13
-68 -855 -65 l-779 3 -26 24 c-50 47 -40 141 17 169 15 7 284 11 803 11 769 1
782 1 807 -19z m-1932 -526 c93 -48 55 -194 -50 -194 -104 0 -146 137 -57 191
38 23 67 24 107 3z m1920 0 c42 -21 64 -75 49 -120 -6 -18 -23 -43 -37 -54
-25 -20 -39 -20 -804 -20 -552 0 -785 3 -803 11 -76 35 -67 162 14 192 8 3
361 6 783 6 679 1 772 -1 798 -15z m-1926 -530 c31 -14 65 -64 65 -94 0 -7 -7
-27 -16 -45 -19 -41 -73 -69 -114 -60 -37 8 -77 48 -85 85 -9 40 19 95 58 114
40 20 51 20 92 0z m1920 0 c31 -14 65 -64 65 -94 0 -7 -7 -27 -16 -45 -32 -67
0 -65 -838 -65 -829 0 -809 -1 -840 59 -20 38 -20 64 0 102 30 60 9 58 837 59
671 0 763 -2 792 -16z m-1902 -544 c38 -30 52 -80 33 -123 -15 -37 -59 -67
-96 -67 -37 0 -81 30 -96 67 -29 68 21 143 96 143 22 0 48 -8 63 -20z m1920 0
c38 -30 52 -80 33 -123 -29 -71 13 -68 -855 -65 l-779 3 -26 24 c-50 47 -40
141 17 169 15 7 284 11 803 11 769 1 782 1 807 -19z"/>
</g>
</svg>
