<svg version="1.2" xmlns="http://www.w3.org/2000/svg" viewBox="0 0 48 48" width="48" height="48">
	<title>352426_history_icon-svg</title>
	<style>
		.s0 { fill: none } 
		.s1 { opacity: .9;fill: #ffffff } 
	</style>
	<path id="Layer" class="s0" d="m0 0h48v48h-48z"/>
	<path id="Layer" fill-rule="evenodd" class="s1" d="m44 24c0 9.9-8.1 18-18 18-5 0-9.5-2-12.7-5.3l2.8-2.8c2.5 2.5 6 4.1 9.9 4.1 7.7 0 14-6.3 14-14 0-7.7-6.3-14-14-14-7.7 0-14 6.3-14 14h6l-8.1 8.1-0.1-0.3-7.8-7.8h6c0-9.9 8-18 18-18 9.9 0 18 8.1 18 18zm-17-8v8.5l7 4.1-1.4 2.5-8.6-5.1v-10z"/>
</svg>