<svg version="1.2" xmlns="http://www.w3.org/2000/svg" viewBox="0 0 32 36" width="32" height="36">
	<title>Icon bell-svg</title>
	<style>
		.s0 { fill: #ffffff } 
	</style>
	<path id="Icon_awesome-bell" class="s0" d="m14 35.7q-0.8-0.4-1.4-1-0.7-0.7-1-1.5-0.3-0.8-0.4-1.7h9.1q-0.1 0.9-0.4 1.7-0.3 0.8-1 1.5-0.6 0.6-1.4 1-0.9 0.3-1.7 0.3-0.9 0-1.8-0.3zm17.2-9.9q0.1 0.2 0.1 0.4 0.1 0.2 0.2 0.4 0 0.2 0 0.4 0 0.4-0.2 0.9-0.1 0.4-0.5 0.7-0.3 0.3-0.7 0.5-0.4 0.2-0.9 0.1h-26.9q-0.5 0.1-0.9-0.1-0.4-0.2-0.7-0.5-0.4-0.3-0.5-0.7-0.2-0.5-0.2-0.9 0-0.2 0-0.4 0.1-0.2 0.2-0.4 0-0.2 0.1-0.4 0.2-0.2 0.3-0.3c1.4-1.5 3.9-3.7 3.9-10.9q0-1.9 0.6-3.7 0.7-1.9 1.9-3.3 1.3-1.5 2.9-2.5 1.7-1 3.6-1.4v-1.5c0-0.5 0.2-1.1 0.7-1.5 0.4-0.5 0.9-0.7 1.5-0.7 0.6 0 1.2 0.2 1.6 0.7 0.5 0.4 0.7 1 0.7 1.5v1.5q1.9 0.4 3.6 1.4 1.6 1 2.9 2.5 1.2 1.4 1.8 3.3 0.7 1.8 0.7 3.7c0 7.2 2.5 9.4 3.9 10.9q0.1 0.1 0.3 0.3z"/>
</svg>