<svg width="53" height="54" viewBox="0 0 53 54" fill="none" xmlns="http://www.w3.org/2000/svg">
<path d="M14.7222 0C6.59261 0 0 6.717 0 15V39C0 47.283 6.59261 54 14.7222 54H38.2778C46.4074 54 53 47.283 53 39V15C53 6.717 46.4074 0 38.2778 0H14.7222ZM44.1667 6C45.792 6 47.1111 7.344 47.1111 9C47.1111 10.656 45.792 12 44.1667 12C42.5413 12 41.2222 10.656 41.2222 9C41.2222 7.344 42.5413 6 44.1667 6ZM26.5 12C34.6296 12 41.2222 18.717 41.2222 27C41.2222 35.283 34.6296 42 26.5 42C18.3704 42 11.7778 35.283 11.7778 27C11.7778 18.717 18.3704 12 26.5 12ZM26.5 18C24.1573 18 21.9105 18.9482 20.2539 20.636C18.5973 22.3239 17.6667 24.6131 17.6667 27C17.6667 29.3869 18.5973 31.6761 20.2539 33.364C21.9105 35.0518 24.1573 36 26.5 36C28.8427 36 31.0895 35.0518 32.7461 33.364C34.4027 31.6761 35.3333 29.3869 35.3333 27C35.3333 24.6131 34.4027 22.3239 32.7461 20.636C31.0895 18.9482 28.8427 18 26.5 18Z" fill="#00883D"/>
</svg>
