<?xml version="1.0" encoding="UTF-8" standalone="no"?> <svg id="Layer_1" data-name="Layer 1" xmlns="http://www.w3.org/2000/svg" viewBox="0 0 512 512"><defs><style>.cls-1{fill:#efeae6;}.cls-2{fill:#ffd38d;}.cls-3{fill:#6d4135;}</style></defs><title>images-filled</title><rect class="cls-1" x="21.33" y="64" width="384" height="298.67"/><rect class="cls-1" x="106.67" y="149.33" width="384" height="298.67"/><polygon class="cls-2" points="329.14 234.67 277.33 298.67 256 256 192 341.33 250.18 341.33 312.52 341.33 405.33 341.33 329.14 234.67"/><path class="cls-3" d="M490.67,128h-64V64a21.33,21.33,0,0,0-21.33-21.33h-384A21.33,21.33,0,0,0,0,64V362.67A21.33,21.33,0,0,0,21.33,384h64v64a21.33,21.33,0,0,0,21.33,21.33h384A21.33,21.33,0,0,0,512,448V149.33A21.33,21.33,0,0,0,490.67,128ZM85.33,149.33v192H42.67v-256H384V128H106.67A21.33,21.33,0,0,0,85.33,149.33Zm384,277.33H128v-256H469.33Z"/><path class="cls-3" d="M192,362.67H405.33a21.33,21.33,0,0,0,17.36-33.73L346.5,222.27a21.34,21.34,0,0,0-33.94-1l-31,38.25-6.52-13a21.34,21.34,0,0,0-17.17-11.71,21.66,21.66,0,0,0-19,8.45l-64,85.33A21.33,21.33,0,0,0,192,362.67Zm101.92-50.57,34.16-42.21L363.88,320H277.44A21.35,21.35,0,0,0,293.92,312.09Zm-41.56-15.68,5.9,11.79A21.32,21.32,0,0,0,275,319.88a19.49,19.49,0,0,0,2.2.13H234.67Z"/></svg>