<?xml version="1.0" encoding="UTF-8" standalone="no"?><!-- Generator: Gravit.io --><svg xmlns="http://www.w3.org/2000/svg" xmlns:xlink="http://www.w3.org/1999/xlink" style="isolation:isolate" viewBox="0 0 301 301" width="301pt" height="301pt"><defs><clipPath id="_clipPath_pLThfDPsA0jES28iVm1XlXS8Fu828N5q"><rect width="301" height="301"/></clipPath></defs><g clip-path="url(#_clipPath_pLThfDPsA0jES28iVm1XlXS8Fu828N5q)"><g><g><g><path d=" M 1 150 C 1 67.16 68.16 0 151 0 C 233.84 0 301 67.16 301 150 C 301 232.84 233.84 300 151 300 C 68.16 300 1 232.84 1 150 Z  M 111.77 101.61 L 160.29 150.12 L 112.02 198.39 C 106.55 203.86 106.55 212.73 112.02 218.19 C 117.49 223.66 126.36 223.66 131.83 218.2 L 187.87 162.15 C 188.71 161.62 189.51 161 190.24 160.27 C 193.04 157.47 194.38 153.79 194.32 150.12 C 194.39 146.46 193.04 142.78 190.24 139.98 C 189.51 139.25 188.71 138.63 187.87 138.09 L 131.58 81.8 C 128.84 79.06 125.26 77.7 121.68 77.7 C 118.09 77.7 114.51 79.06 111.77 81.8 C 106.31 87.27 106.31 96.14 111.77 101.61 Z " fill-rule="evenodd" fill="rgb(74,120,54)"/></g></g></g></g></svg>