<svg version="1.2" xmlns="http://www.w3.org/2000/svg" viewBox="0 0 512 512" width="512" height="512">
	<title>notification-svgrepo-com-svg</title>
	<style>
		.s0 { fill: #00883d } 
	</style>
	<g id="Layer">
		<g id="Layer">
			<g id="Layer">
				<path id="Layer" class="s0" d="m413.9 392.9h-315.8c-15.2 0-24.1-17.1-15.3-29.5l45.4-64.3v-125.6c0-64.1 47.5-117.3 109.1-126.4v-28.4c0-10.3 8.4-18.7 18.7-18.7 10.3 0 18.7 8.4 18.7 18.7v28.4c61.6 9.1 109.1 62.3 109.1 126.4v125.6l45.4 64.3c8.8 12.4-0.1 29.5-15.3 29.5z"/>
				<path id="Layer" class="s0" d="m308.8 459.2c0 29.1-23.7 52.8-52.8 52.8-29.1 0-52.8-23.7-52.8-52.8 0-29.2 23.7-52.9 52.8-52.9 29.1 0 52.8 23.7 52.8 52.9z"/>
			</g>
		</g>
	</g>
	<g id="Layer">
	</g>
	<g id="Layer">
	</g>
	<g id="Layer">
	</g>
	<g id="Layer">
	</g>
	<g id="Layer">
	</g>
	<g id="Layer">
	</g>
	<g id="Layer">
	</g>
	<g id="Layer">
	</g>
	<g id="Layer">
	</g>
	<g id="Layer">
	</g>
	<g id="Layer">
	</g>
	<g id="Layer">
	</g>
	<g id="Layer">
	</g>
	<g id="Layer">
	</g>
	<g id="Layer">
	</g>
</svg>