<svg width="47" height="46" viewBox="0 0 47 46" fill="none" xmlns="http://www.w3.org/2000/svg">
<path d="M23.5 2.875C28.9535 2.875 34.1837 4.99531 38.0399 8.76948C41.8961 12.5436 44.0625 17.6625 44.0625 23C44.0625 28.3375 41.8961 33.4564 38.0399 37.2305C34.1837 41.0047 28.9535 43.125 23.5 43.125C18.0465 43.125 12.8163 41.0047 8.96012 37.2305C5.1039 33.4564 2.9375 28.3375 2.9375 23C2.9375 17.6625 5.1039 12.5436 8.96012 8.76948C12.8163 4.99531 18.0465 2.875 23.5 2.875V2.875ZM23.5 11.5C23.1271 11.4997 22.7581 11.5755 22.4168 11.7226C22.0755 11.8697 21.7693 12.0849 21.5177 12.3544C21.2662 12.6238 21.0748 12.9417 20.9559 13.2876C20.8369 13.6336 20.793 14 20.8269 14.3635L21.8991 25.8807C21.9406 26.268 22.1272 26.6264 22.4228 26.8869C22.7185 27.1475 23.1022 27.2916 23.5 27.2916C23.8978 27.2916 24.2815 27.1475 24.5772 26.8869C24.8728 26.6264 25.0594 26.268 25.1009 25.8807L26.1702 14.3635C26.2041 14.0002 26.1602 13.6341 26.0414 13.2883C25.9227 12.9426 25.7316 12.6248 25.4803 12.3554C25.2291 12.086 24.9232 11.8708 24.5823 11.7235C24.2413 11.5762 23.8727 11.5001 23.5 11.5V11.5ZM23.5 34.5C24.1233 34.5 24.721 34.2577 25.1617 33.8263C25.6024 33.395 25.85 32.81 25.85 32.2C25.85 31.59 25.6024 31.005 25.1617 30.5737C24.721 30.1423 24.1233 29.9 23.5 29.9C22.8767 29.9 22.279 30.1423 21.8383 30.5737C21.3976 31.005 21.15 31.59 21.15 32.2C21.15 32.81 21.3976 33.395 21.8383 33.8263C22.279 34.2577 22.8767 34.5 23.5 34.5V34.5Z" fill="#FFD233"/>
</svg>
