<svg version="1.2" baseProfile="tiny-ps" xmlns="http://www.w3.org/2000/svg" viewBox="0 0 52 52" width="52" height="52">
	<title>plus-svgrepo-com-svg</title>
	<style>
		tspan { white-space:pre }
		.shp0 { fill: #4a7836 } 
	</style>
	<path id="Layer" fill-rule="evenodd" class="shp0" d="M52 26C52 40.34 40.34 52 26 52C11.66 52 0 40.34 0 26C0 11.66 11.66 0 26 0C40.34 0 52 11.66 52 26ZM40.5 26C40.5 24.9 39.6 24 38.5 24L28 24L28 14C28 12.9 27.1 12 26 12C24.9 12 24 12.9 24 14L24 24L13.5 24C12.4 24 11.5 24.9 11.5 26C11.5 27.1 12.4 28 13.5 28L24 28L24 39C24 40.1 24.9 41 26 41C27.1 41 28 40.1 28 39L28 28L38.5 28C39.6 28 40.5 27.1 40.5 26Z" />
	<g id="Layer">
	</g>
	<g id="Layer">
	</g>
	<g id="Layer">
	</g>
	<g id="Layer">
	</g>
	<g id="Layer">
	</g>
	<g id="Layer">
	</g>
	<g id="Layer">
	</g>
	<g id="Layer">
	</g>
	<g id="Layer">
	</g>
	<g id="Layer">
	</g>
	<g id="Layer">
	</g>
	<g id="Layer">
	</g>
	<g id="Layer">
	</g>
	<g id="Layer">
	</g>
	<g id="Layer">
	</g>
</svg>