<svg width="54" height="58" viewBox="0 0 54 58" fill="none" xmlns="http://www.w3.org/2000/svg">
<path d="M44.8343 16.2902C44.2262 14.4004 42.9365 12.8564 41.1932 11.9272C41.2088 11.8981 41.224 11.869 41.2392 11.8394C42.6393 9.09875 41.5425 5.7288 38.7944 4.32691C38.0117 3.92753 37.1355 3.71662 36.2607 3.71662C35.3415 3.71662 34.4276 3.9479 33.617 4.37792C32.9131 3.20951 31.9083 2.27326 30.6741 1.64376C29.6342 1.11335 28.5133 0.844401 27.3422 0.844401C25.6608 0.844401 23.9922 1.42934 22.6879 2.46335L20.2351 1.21257C20.1815 1.18516 20.1243 1.16464 20.0657 1.15101C18.859 0.560652 17.569 0.261368 16.2286 0.261368C12.9095 0.261368 9.91073 2.09547 8.40247 5.04786C7.89218 6.04655 7.5783 7.13919 7.47797 8.25103C7.29844 8.22904 7.1173 8.21776 6.93483 8.21776C4.50852 8.21776 2.53457 10.1902 2.53457 12.6147C2.53457 13.3348 2.7053 14.0264 3.03341 14.6502C2.11493 15.3399 1.36321 16.2315 0.836649 17.2622C-0.085353 19.0669 -0.251536 21.1255 0.369048 23.0587C0.973644 24.9421 2.25354 26.4819 3.98387 27.4127C3.18771 29.9502 4.35129 32.8274 6.78082 34.0667C7.56876 34.4686 8.41684 34.6722 9.30159 34.6722C9.95899 34.6722 10.6151 34.5548 11.2342 34.3302C11.9265 35.7874 13.0734 36.9709 14.5256 37.7116C15.5665 38.2425 16.6882 38.5094 17.8598 38.5094C18.7365 38.5094 19.6092 38.3476 20.429 38.0475V49.4757H16.1566C15.5092 49.4757 15.002 49.982 15.002 50.6282V52.4302C15.002 53.0746 15.5092 53.5795 16.1566 53.5795H28.9309C29.5918 53.5795 30.1096 53.0748 30.1096 52.4302V50.6282C30.1096 49.9927 29.5808 49.4757 28.9309 49.4757H24.6826V37.9869L24.963 38.1289L25.1223 38.1903H25.188C26.3789 38.7766 27.6504 39.0728 28.9705 39.0728C32.2914 39.0728 35.2916 37.2472 36.8008 34.2932C37.2557 33.4025 37.5511 32.4703 37.6832 31.4939C37.8466 31.5122 38.0114 31.5215 38.1767 31.5215C40.603 31.5215 42.577 29.549 42.577 27.1245C42.577 26.3183 42.3574 25.5376 41.9479 24.8582C42.9683 24.1502 43.7966 23.2034 44.3686 22.0835C45.2906 20.2791 45.4561 18.2216 44.8343 16.2902Z" fill="white"/>
<path d="M38.5773 46.8529L36.5114 44.7869L27.1889 54.1094L26.8494 54.4489H26.3693H22.0227H20.8636V53.2898V51.8409V51.3608L21.2031 51.0213L31.9744 40.25L31.3452 39.6207L21.2031 29.4787L20.8636 29.1392V28.6591V27.2102V26.0511H22.0227H26.3693H26.8494L27.1889 26.3906L35.8821 35.0838L36.5114 35.7131L38.5773 33.6471C38.3658 32.9906 38.25 32.2909 38.25 31.5568C38.25 27.7147 41.3624 24.6023 45.2045 24.6023C49.0467 24.6023 52.1591 27.7147 52.1591 31.5568C52.1591 35.399 49.0467 38.5114 45.2045 38.5114C44.4705 38.5114 43.7708 38.3956 43.1143 38.184L41.0483 40.25L43.1143 42.316C43.7708 42.1044 44.4705 41.9886 45.2045 41.9886C49.0467 41.9886 52.1591 45.101 52.1591 48.9432C52.1591 52.7853 49.0467 55.8977 45.2045 55.8977C41.3624 55.8977 38.25 52.7853 38.25 48.9432C38.25 48.2091 38.3658 47.5094 38.5773 46.8529ZM45.2045 33.2955C46.1619 33.2955 46.9432 32.5211 46.9432 31.5568C46.9432 30.5925 46.1619 29.8182 45.2045 29.8182C44.2472 29.8182 43.4659 30.5925 43.4659 31.5568C43.4659 32.5211 44.2472 33.2955 45.2045 33.2955ZM45.2045 50.6818C46.1619 50.6818 46.9432 49.9075 46.9432 48.9432C46.9432 47.9789 46.1619 47.2045 45.2045 47.2045C44.2472 47.2045 43.4659 47.9789 43.4659 48.9432C43.4659 49.9075 44.2472 50.6818 45.2045 50.6818ZM36.5114 39.8153C36.2769 39.8153 36.0767 40.0155 36.0767 40.25C36.0767 40.4845 36.2769 40.6847 36.5114 40.6847C36.7458 40.6847 36.946 40.4845 36.946 40.25C36.946 40.0155 36.7458 39.8153 36.5114 39.8153Z" fill="white" stroke="#00883D" stroke-width="2.31818"/>
</svg>
