<svg width="55" height="54" viewBox="0 0 55 54" fill="none" xmlns="http://www.w3.org/2000/svg">
<path d="M8.12108 53.9365C12.271 53.9365 15.6352 50.5723 15.6352 46.4224C15.6352 42.2724 12.271 38.9082 8.12108 38.9082C3.97113 38.9082 0.606934 42.2724 0.606934 46.4224C0.606934 50.5723 3.97113 53.9365 8.12108 53.9365Z" fill="#00883D"/>
<path d="M0.606934 0.303467V10.0581C24.8383 10.0581 44.4854 29.7051 44.4854 53.9365H54.24C54.24 24.328 30.2154 0.303467 0.606934 0.303467ZM0.606934 19.8127V29.5673C14.0497 29.5673 24.9762 40.4938 24.9762 53.9365H34.7308C34.7308 35.0822 19.4612 19.8127 0.606934 19.8127Z" fill="#00883D"/>
</svg>
