<svg width="19" height="23" viewBox="0 0 19 23" fill="none" xmlns="http://www.w3.org/2000/svg">
<path d="M7 16H15V14H7V16ZM7 12H15V10H7V12ZM5 20C4.45 20 3.97933 19.8043 3.588 19.413C3.196 19.021 3 18.55 3 18V2C3 1.45 3.196 0.979 3.588 0.587C3.97933 0.195667 4.45 0 5 0H13L19 6V18C19 18.55 18.8043 19.021 18.413 19.413C18.021 19.8043 17.55 20 17 20H5ZM12 7H17L12 2V7Z" fill="#EDC45B"/>
<path d="M5.68182 6.14435L5.70277 5.37396H4.9321H1.69976H0.928543L0.950047 6.14487L1.24059 16.561L1.26093 17.2901H1.9903H2.08167C1.895 17.3977 1.72001 17.5316 1.55818 17.6912C1.07416 18.1684 0.821244 18.7668 0.826245 19.4456C0.821263 20.1266 1.07215 20.7285 1.5544 21.2107L1.55818 21.2145C2.0412 21.6907 2.64152 21.9389 3.31956 21.9389C3.76125 21.9389 4.17943 21.8266 4.55902 21.6016L4.55906 21.6017L4.56776 21.5964C4.93026 21.3748 5.22588 21.0794 5.44762 20.7171C5.68433 20.3335 5.80592 19.9083 5.81276 19.4569L5.8129 19.4474L5.8128 19.4379C5.80587 18.758 5.54344 18.162 5.0554 17.6875C4.89384 17.5304 4.71992 17.3974 4.53481 17.2901H4.64881H5.37869L5.39854 16.5605L5.68182 6.14435Z" fill="#EDC45B" stroke="white" stroke-width="1.5"/>
</svg>
