<svg width="19" height="26" viewBox="0 0 19 26" fill="none" xmlns="http://www.w3.org/2000/svg">
<path d="M7 16H15V14H7V16ZM7 12H15V10H7V12ZM5 20C4.45 20 3.97933 19.8043 3.588 19.413C3.196 19.021 3 18.55 3 18V2C3 1.45 3.196 0.979 3.588 0.587C3.97933 0.195667 4.45 0 5 0H13L19 6V18C19 18.55 18.8043 19.021 18.413 19.413C18.021 19.8043 17.55 20 17 20H5ZM12 7H17L12 2V7Z" fill="#EDC45B"/>
<path d="M4.93204 6.12397L4.64876 16.5401H1.99025L1.6997 6.12397H4.93204ZM3.31951 21.1889C2.8401 21.1889 2.42849 21.0194 2.08468 20.6804C1.74086 20.3366 1.57138 19.925 1.57622 19.4456C1.57138 18.971 1.74086 18.5642 2.08468 18.2253C2.42849 17.8863 2.8401 17.7168 3.31951 17.7168C3.77954 17.7168 4.18388 17.8863 4.53254 18.2253C4.8812 18.5642 5.05795 18.971 5.06279 19.4456C5.05795 19.7652 4.9732 20.0581 4.80856 20.3245C4.64876 20.586 4.43811 20.7966 4.17662 20.9564C3.91513 21.1114 3.62942 21.1889 3.31951 21.1889Z" fill="#EDC45B"/>
<path d="M4.93204 6.12397L6.43149 6.16475L6.47339 4.62397H4.93204V6.12397ZM4.64876 16.5401V18.0401H6.10852L6.14821 16.5809L4.64876 16.5401ZM1.99025 16.5401L0.490834 16.5819L0.531508 18.0401H1.99025V16.5401ZM1.6997 6.12397V4.62397H0.157278L0.200286 6.16579L1.6997 6.12397ZM2.08468 20.6804L1.02399 21.7411L1.03157 21.7486L2.08468 20.6804ZM1.57622 19.4456L3.07614 19.4607L3.0763 19.4455L3.07614 19.4303L1.57622 19.4456ZM2.08468 18.2253L3.13779 19.2934L3.13779 19.2934L2.08468 18.2253ZM4.53254 18.2253L3.48692 19.3008L3.48692 19.3008L4.53254 18.2253ZM5.06279 19.4456L6.56262 19.4683L6.56291 19.4493L6.56271 19.4303L5.06279 19.4456ZM4.80856 20.3245L3.53265 19.5357L3.52864 19.5423L4.80856 20.3245ZM4.17662 20.9564L4.94132 22.2469L4.9501 22.2417L4.9588 22.2363L4.17662 20.9564ZM3.4326 6.08319L3.14931 16.4993L6.14821 16.5809L6.43149 6.16475L3.4326 6.08319ZM4.64876 15.0401H1.99025V18.0401H4.64876V15.0401ZM3.48967 16.4983L3.19912 6.08214L0.200286 6.16579L0.490834 16.5819L3.48967 16.4983ZM1.6997 7.62397H4.93204V4.62397H1.6997V7.62397ZM3.31951 19.6889C3.26051 19.6889 3.23344 19.6793 3.22237 19.6747C3.2111 19.6701 3.18303 19.6568 3.13779 19.6122L1.03157 21.7486C1.65381 22.362 2.44282 22.6889 3.31951 22.6889V19.6889ZM3.14534 19.6197C3.10046 19.5749 3.08936 19.5491 3.08672 19.5427C3.08426 19.5367 3.07559 19.5151 3.07614 19.4607L0.0762968 19.4304C0.0673184 20.3193 0.399739 21.1168 1.02402 21.7411L3.14534 19.6197ZM3.07614 19.4303C3.07563 19.3803 3.08359 19.3632 3.08432 19.3615C3.08528 19.3592 3.09428 19.3363 3.13779 19.2934L1.03157 17.1571C0.403721 17.7761 0.0672243 18.5716 0.0762984 19.4609L3.07614 19.4303ZM3.13779 19.2934C3.18303 19.2488 3.2111 19.2356 3.22237 19.2309C3.23344 19.2264 3.26051 19.2168 3.31951 19.2168V16.2168C2.44282 16.2168 1.65381 16.5436 1.03157 17.1571L3.13779 19.2934ZM3.31951 19.2168C3.36039 19.2168 3.37837 19.2233 3.38793 19.2273C3.39902 19.232 3.43254 19.2479 3.48692 19.3008L5.57816 17.1498C4.96717 16.5558 4.19401 16.2168 3.31951 16.2168V19.2168ZM3.48692 19.3008C3.53472 19.3472 3.54756 19.3748 3.55086 19.3824C3.55384 19.3892 3.56235 19.4099 3.56287 19.4609L6.56271 19.4303C6.55368 18.545 6.20558 17.7598 5.57816 17.1498L3.48692 19.3008ZM3.56296 19.4228C3.56213 19.4775 3.55178 19.5048 3.53267 19.5357L6.08445 21.1132C6.39463 20.6115 6.55376 20.0528 6.56262 19.4683L3.56296 19.4228ZM3.52864 19.5423C3.49292 19.6007 3.45289 19.6408 3.39445 19.6765L4.9588 22.2363C5.42334 21.9525 5.8046 21.5712 6.08848 21.1067L3.52864 19.5423ZM3.41192 19.666C3.38664 19.681 3.36588 19.6889 3.31951 19.6889V22.6889C3.89296 22.6889 4.44362 22.5418 4.94132 22.2469L3.41192 19.666Z" fill="white"/>
</svg>
