<?xml version="1.0" encoding="iso-8859-1"?>
<!-- Uploaded to: SVG Repo, www.svgrepo.com, Generator: SVG Repo Mixer Tools -->
<svg fill="#000000" height="800px" width="800px" version="1.1" id="Layer_1" xmlns="http://www.w3.org/2000/svg" xmlns:xlink="http://www.w3.org/1999/xlink" 
	 viewBox="0 0 512 512" xml:space="preserve">
<g>
	<g>
		<path d="M465.067,392.533H345.6c-4.713,0-8.533,3.821-8.533,8.533V435.2c0,4.713,3.821,8.533,8.533,8.533h119.467
			c4.713,0,8.533-3.821,8.533-8.533v-34.133C473.6,396.354,469.779,392.533,465.067,392.533z M456.533,426.667h-102.4V409.6h102.4
			V426.667z"/>
	</g>
</g>
<g>
	<g>
		<path d="M406.358,0H65.108C50.971,0,38.4,10.4,38.4,24.5v460.867c0,14.1,12.542,26.633,26.65,26.633h257.158
			c4.712,0,8.533-3.817,8.533-8.533s-3.821-8.533-8.533-8.533H65.05c-4.696,0-9.583-4.883-9.583-9.567V24.5
			c0-4.683,4.912-7.433,9.642-7.433h341.25c4.65,0,7.508,2.808,7.508,7.4V323.2c0,4.717,3.821,8.533,8.533,8.533
			s8.533-3.817,8.533-8.533V24.467C430.933,10.392,420.496,0,406.358,0z"/>
	</g>
</g>
<g>
	<g>
		<path d="M278.4,59.733h-85.333c-4.713,0-8.533,3.817-8.533,8.533c0,4.717,3.821,8.533,8.533,8.533H278.4
			c4.713,0,8.533-3.817,8.533-8.533C286.933,63.55,283.113,59.733,278.4,59.733z"/>
	</g>
</g>
<g>
	<g>
		<path d="M355.2,119.467H116.267c-4.713,0-8.533,3.817-8.533,8.533c0,4.717,3.821,8.533,8.533,8.533H355.2
			c4.713,0,8.533-3.817,8.533-8.533C363.733,123.283,359.913,119.467,355.2,119.467z"/>
	</g>
</g>
<g>
	<g>
		<path d="M355.2,179.2H116.267c-4.713,0-8.533,3.817-8.533,8.533c0,4.717,3.821,8.533,8.533,8.533H355.2
			c4.713,0,8.533-3.817,8.533-8.533C363.733,183.017,359.913,179.2,355.2,179.2z"/>
	</g>
</g>
<g>
	<g>
		<path d="M355.2,238.933H116.267c-4.713,0-8.533,3.817-8.533,8.533c0,4.717,3.821,8.533,8.533,8.533H355.2
			c4.713,0,8.533-3.817,8.533-8.533C363.733,242.75,359.913,238.933,355.2,238.933z"/>
	</g>
</g>
<g>
	<g>
		<path d="M355.2,298.667H116.267c-4.713,0-9.6,2.75-9.6,7.467v128c0,4.717,4.887,9.6,9.6,9.6h179.2
			c4.713,0,8.533-3.817,8.533-8.533s-3.821-8.533-8.533-8.533H123.733V315.733H345.6v41.6c0,4.717,3.821,8.533,8.533,8.533
			s8.533-3.817,8.533-8.533v-51.2C362.667,301.417,359.913,298.667,355.2,298.667z"/>
	</g>
</g>
</svg>