<svg width="21" height="24" viewBox="0 0 21 24" fill="none" xmlns="http://www.w3.org/2000/svg">
<path d="M9 16H17V14H9V16ZM9 12H17V10H9V12ZM7 20C6.45 20 5.97933 19.8043 5.588 19.413C5.196 19.021 5 18.55 5 18V2C5 1.45 5.196 0.979 5.588 0.587C5.97933 0.195667 6.45 0 7 0H15L21 6V18C21 18.55 20.8043 19.021 20.413 19.413C20.021 19.8043 19.55 20 19 20H7ZM14 7H19L14 2V7Z" fill="#00883D"/>
<path d="M7.71666 21.5319L8.2454 22.0575L8.77414 21.5319L18.5287 11.8354L19.0638 11.3035L18.5287 10.7716L17.2174 9.46809L16.6887 8.9425L16.1599 9.46809L8.2454 17.3354L4.84009 13.9504L4.31135 13.4248L3.78261 13.9504L2.47126 15.254L1.93616 15.7859L2.47126 16.3178L7.71666 21.5319Z" fill="#00883D" stroke="white" stroke-width="1.5"/>
</svg>
