<svg width="49" height="54" viewBox="0 0 49 54" fill="none" xmlns="http://www.w3.org/2000/svg">
<path d="M4.5 0C2.025 0 0.0225005 2.115 0.0225005 4.7L0 42.3C0 44.885 2.0025 47 4.4775 47H31.5C33.975 47 36 44.885 36 42.3V14.1L22.5 0H4.5ZM20.25 16.45V3.525L32.625 16.45H20.25Z" fill="white"/>
<path d="M28.5 30.375C32.6592 30.375 36.083 33.375 36.6973 37.25L33.2727 37.25C32.7651 37.25 32.3079 37.557 32.1157 38.0269C31.9236 38.4967 32.0347 39.0361 32.3968 39.3918L38.7605 45.6418C39.2467 46.1194 40.026 46.1194 40.5122 45.6418L46.8759 39.3918C47.2381 39.0361 47.3491 38.4967 47.157 38.0269C46.9648 37.557 46.5076 37.25 46 37.25L42.4205 37.25C41.7784 30.2225 35.7748 24.75 28.5 24.75C25.7592 24.75 23.2088 25.5393 21.0619 26.8765C20.7366 27.0791 20.5222 27.4197 20.4802 27.8007C20.4383 28.1816 20.5734 28.5608 20.8468 28.8293L23.1696 31.1106C23.5589 31.4929 24.1513 31.5786 24.633 31.3221C25.7704 30.7164 27.0956 30.375 28.5 30.375ZM35.9381 50.1235C36.2634 49.9209 36.4778 49.5803 36.5198 49.1993C36.5617 48.8184 36.4266 48.4392 36.1532 48.1707L33.8304 45.8894C33.4458 45.5116 32.8622 45.4231 32.3827 45.6697C31.2096 46.2732 29.8932 46.625 28.5 46.625C24.3408 46.625 20.917 43.625 20.3027 39.75L23.7273 39.75C24.2349 39.75 24.6921 39.443 24.8843 38.9731C25.0764 38.5033 24.9653 37.9639 24.6032 37.6082L18.2395 31.3582C17.7533 30.8806 16.974 30.8806 16.4878 31.3582L10.1241 37.6082C9.76195 37.9639 9.65086 38.5033 9.84301 38.9731C10.0352 39.443 10.4924 39.75 11 39.75L14.5795 39.75C15.2216 46.7775 21.2252 52.25 28.5 52.25C31.2408 52.25 33.7912 51.4607 35.9381 50.1235Z" fill="white" stroke="#00883D" stroke-width="2.5" stroke-linejoin="round"/>
</svg>
