<?xml version="1.0" standalone="no"?>
<!DOCTYPE svg PUBLIC "-//W3C//DTD SVG 20010904//EN"
 "http://www.w3.org/TR/2001/REC-SVG-20010904/DTD/svg10.dtd">
<svg version="1.0" xmlns="http://www.w3.org/2000/svg"
 width="512.000000pt" height="512.000000pt" viewBox="0 0 512.000000 512.000000"
 preserveAspectRatio="xMidYMid meet">

<g transform="translate(0.000000,512.000000) scale(0.100000,-0.100000)"
fill="#00883D" stroke="none">
<path d="M452 5100 c-109 -29 -187 -74 -272 -160 -87 -86 -131 -163 -160 -276
-20 -76 -20 -118 -20 -2104 0 -1986 0 -2028 20 -2104 29 -113 73 -190 160
-276 86 -87 163 -131 276 -160 72 -19 112 -20 578 -20 463 0 504 2 541 19 68
30 125 113 125 181 0 37 -24 93 -52 126 -63 72 -37 68 -604 74 l-510 5 -41 27
c-22 15 -51 44 -64 65 l-24 38 0 2025 0 2025 24 38 c13 21 42 50 64 65 l41 27
933 3 933 2 0 -333 c0 -373 7 -426 72 -550 42 -81 164 -203 245 -245 124 -65
177 -72 550 -72 l333 0 0 -85 c0 -137 46 -212 147 -241 48 -14 58 -14 106 0
32 9 64 28 84 48 58 59 63 86 63 305 0 110 -5 216 -11 238 -9 34 -100 130
-647 677 -547 547 -643 638 -677 647 -27 8 -371 11 -1090 10 -1001 0 -1053 -1
-1123 -19z m2693 -1178 c-97 -1 -183 2 -206 8 -51 14 -114 77 -128 127 -6 21
-11 114 -11 208 l0 170 255 -255 255 -255 -165 -3z"/>
<path d="M932 3189 c-47 -14 -109 -79 -123 -131 -23 -89 12 -182 88 -229 l38
-24 1065 0 1065 0 38 24 c21 13 50 42 65 64 23 34 27 52 27 107 0 55 -4 73
-27 107 -15 22 -44 51 -65 64 l-38 24 -1050 2 c-645 1 -1063 -2 -1083 -8z"/>
<path d="M4295 2998 c-35 -9 -159 -130 -943 -912 -497 -495 -927 -932 -957
-971 -116 -151 -155 -258 -231 -638 -50 -253 -55 -287 -45 -325 22 -79 110
-151 187 -152 45 0 563 106 636 131 86 29 202 89 278 144 36 26 473 455 971
954 956 956 929 927 929 1012 0 80 -11 93 -333 416 -171 172 -325 319 -342
327 -44 21 -103 27 -150 14z m-470 -1569 c-473 -472 -834 -826 -868 -849 -31
-21 -81 -48 -111 -59 -62 -23 -263 -67 -271 -59 -13 13 47 247 81 318 35 72
66 105 868 908 l831 832 140 -140 140 -140 -810 -811z"/>
<path d="M932 2389 c-47 -14 -109 -79 -123 -131 -23 -89 12 -182 88 -229 l38
-24 850 -3 c602 -2 861 0 888 8 60 18 114 73 133 136 14 49 14 59 0 107 -9 32
-28 64 -48 84 -68 66 -20 63 -950 62 -499 0 -856 -5 -876 -10z"/>
<path d="M932 1589 c-47 -14 -109 -80 -123 -131 -23 -89 12 -182 88 -229 l38
-24 497 0 496 0 43 30 c58 41 84 94 84 171 0 73 -31 127 -92 165 l-38 24 -480
2 c-285 1 -493 -2 -513 -8z"/>
</g>
</svg>
