<svg version="1.2" baseProfile="tiny-ps" xmlns="http://www.w3.org/2000/svg" viewBox="0 0 512 512" width="512" height="512">
	<title>trash-svgrepo-com-svg</title>
	<style>
		tspan { white-space:pre }
		.shp0 { fill: #d40000 } 
	</style>
	<path id="Layer" class="shp0" d="M470.12 33.22C472.06 34.02 473.83 35.2 475.31 36.69C476.8 38.17 477.98 39.94 478.78 41.88C479.59 43.82 480 45.9 480 48L480 80C480 82.1 479.59 84.18 478.78 86.12C477.98 88.06 476.8 89.83 475.31 91.31C473.83 92.8 472.06 93.98 470.12 94.78C468.18 95.59 466.1 96 464 96L48 96C45.9 96 43.82 95.59 41.88 94.78C39.94 93.98 38.17 92.8 36.69 91.31C35.2 89.83 34.02 88.06 33.22 86.12C32.41 84.18 32 82.1 32 80L32 48C32 45.9 32.41 43.82 33.22 41.88C34.02 39.94 35.2 38.17 36.69 36.69C38.17 35.2 39.94 34.02 41.88 33.22C43.82 32.41 45.9 32 48 32L168 32L177.4 13.3C178.37 11.31 179.62 9.46 181.11 7.82C182.6 6.17 184.3 4.74 186.19 3.57C188.07 2.4 190.11 1.5 192.24 0.9C194.38 0.29 196.58 -0.01 198.8 0L313.1 0C315.32 0 317.53 0.31 319.67 0.91C321.81 1.52 323.85 2.42 325.74 3.59C327.63 4.76 329.35 6.18 330.85 7.83C332.35 9.47 333.61 11.31 334.6 13.3L344 32L464 32C466.1 32 468.18 32.41 470.12 33.22ZM64 128L448 128L426.8 467C426.42 473.04 424.91 478.95 422.33 484.43C419.76 489.9 416.17 494.84 411.76 498.98C407.35 503.13 402.2 506.4 396.57 508.63C390.95 510.85 384.95 512 378.9 512L133.1 512C127.05 512 121.05 510.85 115.43 508.63C109.8 506.4 104.65 503.13 100.24 498.98C95.83 494.84 92.24 489.9 89.67 484.43C87.09 478.95 85.58 473.04 85.2 467L64 128Z" />
</svg>