<?xml version="1.0" standalone="no"?>
<!DOCTYPE svg PUBLIC "-//W3C//DTD SVG 20010904//EN"
 "http://www.w3.org/TR/2001/REC-SVG-20010904/DTD/svg10.dtd">
<svg version="1.0" xmlns="http://www.w3.org/2000/svg"
 width="512.000000pt" height="512.000000pt" viewBox="0 0 512.000000 512.000000"
 preserveAspectRatio="xMidYMid meet">

<g transform="translate(0.000000,512.000000) scale(0.100000,-0.100000)"
fill="#00883D" stroke="none">
<path d="M3795 5104 c-38 -8 -112 -35 -164 -60 -77 -38 -108 -60 -176 -127
-142 -141 -206 -292 -207 -487 -1 -156 41 -291 128 -413 19 -27 34 -50 32 -51
-2 -2 -33 -17 -70 -34 -191 -88 -368 -261 -465 -457 -70 -140 -103 -291 -103
-471 l0 -114 1171 0 1172 0 -6 163 c-4 135 -9 176 -30 248 -36 119 -68 188
-131 283 -97 146 -241 271 -396 344 -41 20 -76 37 -78 38 -2 1 12 24 31 51 86
121 129 254 129 402 0 198 -63 353 -202 492 -72 73 -101 94 -180 132 -153 74
-300 93 -455 61z"/>
<path d="M1944 4818 c-38 -67 -70 -125 -72 -129 -2 -4 52 -37 119 -75 97 -54
119 -69 103 -75 -10 -4 -71 -24 -134 -44 -63 -20 -179 -68 -258 -105 -550
-265 -963 -744 -1143 -1328 -69 -224 -108 -520 -94 -719 l7 -105 37 35 c53 51
123 102 190 137 65 35 71 47 71 143 0 70 27 235 57 347 95 353 276 654 549
909 143 134 283 229 469 316 145 69 355 140 355 120 0 -3 -47 -62 -105 -131
-58 -69 -105 -129 -105 -133 0 -4 50 -50 111 -101 108 -89 112 -92 129 -74 39
42 562 677 566 688 3 8 -138 92 -373 224 -208 116 -385 214 -394 217 -13 5
-32 -21 -85 -117z"/>
<path d="M4540 2457 c0 -489 -163 -924 -482 -1287 -129 -147 -303 -286 -491
-392 -77 -44 -246 -120 -257 -116 -4 2 35 68 86 148 52 80 93 148 91 152 -3 9
-236 158 -245 158 -4 -1 -118 -175 -253 -388 -159 -249 -243 -389 -235 -394
16 -9 798 -326 815 -330 14 -3 125 248 117 267 -2 5 -59 32 -127 59 -110 45
-120 51 -98 60 676 280 1168 854 1323 1546 38 171 50 274 50 465 l1 180 -147
3 -148 3 0 -134z"/>
<path d="M1004 2210 c-232 -61 -415 -234 -491 -465 -37 -112 -39 -285 -4 -395
27 -88 61 -158 107 -221 l34 -47 -93 -46 c-190 -94 -354 -259 -447 -451 -73
-150 -92 -229 -97 -422 l-5 -163 1172 0 1173 0 -6 158 c-5 171 -23 256 -78
386 -90 211 -287 413 -495 507 -35 16 -64 31 -64 34 0 3 15 27 34 53 93 129
132 266 123 436 -9 191 -66 318 -206 456 -99 98 -208 160 -327 185 -96 20
-242 18 -330 -5z"/>
</g>
</svg>
