<svg width="29" height="20" viewBox="0 0 29 20" fill="none" xmlns="http://www.w3.org/2000/svg">
<g clip-path="url(#clip0_222_25)">
<path d="M14.266 0C11.1864 0.00177416 8.17869 0.930534 5.63427 2.6654C3.08985 4.40026 1.12658 6.86088 0 9.727C1.12524 12.5938 3.08814 15.0551 5.63278 16.79C8.17742 18.5249 11.1857 19.4528 14.2655 19.4528C17.3453 19.4528 20.3536 18.5249 22.8982 16.79C25.4429 15.0551 27.4058 12.5938 28.531 9.727C27.4045 6.86104 25.4414 4.40053 22.8971 2.66568C20.3529 0.930828 17.3454 0.00197488 14.266 0V0ZM14.266 16.211C12.9836 16.211 11.73 15.8307 10.6637 15.1182C9.59739 14.4058 8.76632 13.3931 8.27557 12.2083C7.78481 11.0235 7.6564 9.71981 7.90659 8.46203C8.15678 7.20426 8.77432 6.04892 9.68112 5.14212C10.5879 4.23532 11.7433 3.61777 13.001 3.36759C14.2588 3.1174 15.5625 3.24581 16.7473 3.73656C17.9321 4.22732 18.9448 5.05839 19.6572 6.12468C20.3697 7.19097 20.75 8.44459 20.75 9.727C20.7492 11.4464 20.0658 13.0952 18.85 14.311C17.6342 15.5268 15.9854 16.2102 14.266 16.211V16.211ZM14.266 5.836C13.4964 5.836 12.7441 6.0642 12.1043 6.49175C11.4644 6.9193 10.9657 7.52699 10.6712 8.23798C10.3767 8.94897 10.2996 9.73132 10.4498 10.4861C10.5999 11.2409 10.9705 11.9342 11.5146 12.4784C12.0588 13.0225 12.7521 13.3931 13.5069 13.5432C14.2617 13.6934 15.044 13.6163 15.755 13.3218C16.466 13.0273 17.0737 12.5286 17.5012 11.8887C17.9288 11.2489 18.157 10.4966 18.157 9.727C18.1578 9.2158 18.0577 8.70948 17.8624 8.23704C17.6672 7.76461 17.3806 7.33536 17.0191 6.97389C16.6576 6.61242 16.2284 6.32584 15.756 6.13058C15.2835 5.93531 14.7772 5.83521 14.266 5.836V5.836Z" fill="#00883D"/>
</g>
<defs>
<clipPath id="clip0_222_25">
<rect width="28.531" height="19.453" fill="white"/>
</clipPath>
</defs>
</svg>
