<svg xmlns="http://www.w3.org/2000/svg" width="24.544" height="20.453" viewBox="0 0 24.544 20.453">
  <path id="Icon_material-perm-media" data-name="Icon material-perm-media" d="M2.045,7.091H0V12.2H.01L0,21.408a2.051,2.051,0,0,0,2.045,2.045H20.453V21.408H2.045ZM22.5,5.045H14.317L12.272,3H6.136A2.043,2.043,0,0,0,4.1,5.045l-.01,12.272a2.051,2.051,0,0,0,2.045,2.045H22.5a2.051,2.051,0,0,0,2.045-2.045V7.091A2.051,2.051,0,0,0,22.5,5.045ZM7.159,16.295l4.6-6.136,3.579,4.612L17.9,11.693l3.579,4.6Z" transform="translate(0 -3)" fill="#4a7836"/>
</svg>
