<svg width="25" height="21" viewBox="0 0 25 21" fill="none" xmlns="http://www.w3.org/2000/svg">
<g clip-path="url(#clip0_222_27)">
<path d="M2.045 4.091H0V9.2H0.01L0 18.408C0.00158291 18.9499 0.217546 19.4691 0.600715 19.8523C0.983885 20.2355 1.50312 20.4514 2.045 20.453H20.453V18.408H2.045V4.091ZM22.5 2.045H14.317L12.272 0H6.136C5.59503 0.00185329 5.07688 0.21819 4.6952 0.601558C4.31352 0.984927 4.09947 1.50403 4.1 2.045L4.09 14.317C4.09158 14.8589 4.30755 15.3781 4.69072 15.7613C5.07388 16.1445 5.59312 16.3604 6.135 16.362H22.5C23.0419 16.3604 23.5611 16.1445 23.9443 15.7613C24.3275 15.3781 24.5434 14.8589 24.545 14.317V4.091C24.5437 3.54895 24.3278 3.02946 23.9446 2.64607C23.5614 2.26268 23.0421 2.04658 22.5 2.045ZM7.159 13.295L11.759 7.159L15.338 11.771L17.9 8.693L21.479 13.293L7.159 13.295Z" fill="#00883D"/>
</g>
<defs>
<clipPath id="clip0_222_27">
<rect width="24.544" height="20.453" fill="white"/>
</clipPath>
</defs>
</svg>
