<svg width="54" height="54" viewBox="0 0 54 54" fill="none" xmlns="http://www.w3.org/2000/svg">
<path d="M0.0108361 54L3.66123 40.5864C1.25591 36.4631 -0.0078047 31.7736 3.6267e-05 27C3.6267e-05 12.0879 12.0879 0 27 0C41.9121 0 54 12.0879 54 27C54 41.9121 41.9121 54 27 54C22.2285 54.0077 17.541 52.7449 13.419 50.3415L0.0108361 54ZM17.2557 14.3316C16.9071 14.3532 16.5663 14.4451 16.254 14.6016C15.9611 14.7674 15.6938 14.9748 15.4602 15.2172C15.1362 15.5223 14.9526 15.7869 14.7555 16.0434C13.7576 17.3421 13.2209 18.9362 13.23 20.574C13.2354 21.897 13.581 23.1849 14.121 24.3891C15.2253 26.8245 17.0424 29.403 19.4427 31.7925C20.0205 32.3676 20.5848 32.9454 21.1923 33.4827C24.1715 36.1056 27.7216 37.9972 31.5603 39.0069L33.0966 39.2418C33.5961 39.2688 34.0956 39.231 34.5978 39.2067C35.3842 39.1661 36.152 38.9532 36.8469 38.583C37.2951 38.3454 37.5057 38.2266 37.881 37.989C37.881 37.989 37.9971 37.9134 38.2185 37.746C38.583 37.476 38.8071 37.2843 39.1095 36.9684C39.3336 36.7362 39.528 36.4635 39.6765 36.153C39.8871 35.7129 40.0977 34.8732 40.1841 34.1739C40.2489 33.6393 40.23 33.3477 40.2219 33.1668C40.2111 32.8779 39.9708 32.5782 39.7089 32.4513L38.1375 31.7466C38.1375 31.7466 35.7885 30.7233 34.3548 30.0699C34.2036 30.004 34.0417 29.9665 33.8769 29.9592C33.6922 29.9402 33.5055 29.961 33.3295 30.0201C33.1535 30.0793 32.9921 30.1754 32.8563 30.3021V30.2967C32.8428 30.2967 32.6619 30.4506 30.7098 32.8158C30.5978 32.9663 30.4434 33.0801 30.2665 33.1426C30.0895 33.2051 29.898 33.2135 29.7162 33.1668C29.5403 33.1197 29.368 33.0602 29.2005 32.9886C28.8657 32.8482 28.7496 32.7942 28.5201 32.6943L28.5066 32.6889C26.962 32.0145 25.5318 31.1036 24.2676 29.9889C23.9274 29.6919 23.6115 29.3679 23.2875 29.0547C22.2253 28.0374 21.2995 26.8866 20.5335 25.6311L20.3742 25.3746C20.2598 25.2022 20.1673 25.0163 20.0988 24.8211C19.9962 24.4242 20.2635 24.1056 20.2635 24.1056C20.2635 24.1056 20.9196 23.3874 21.2247 22.9986C21.4788 22.6755 21.7158 22.3393 21.9348 21.9915C22.2534 21.4785 22.3533 20.952 22.1859 20.5443C21.4299 18.6975 20.6469 16.8588 19.8423 15.0336C19.683 14.6718 19.2105 14.4126 18.7812 14.3613C18.6354 14.3451 18.4896 14.3289 18.3438 14.3181C17.9812 14.3001 17.6179 14.3037 17.2557 14.3289V14.3316Z" fill="#00883D"/>
</svg>
