<svg width="54" height="54" viewBox="0 0 54 54" fill="none" xmlns="http://www.w3.org/2000/svg">
<path d="M39.9573 31.0291C39.8521 30.9786 35.9154 29.0401 35.2158 28.7883C34.9302 28.6858 34.6243 28.5856 34.2989 28.5856C33.7673 28.5856 33.3207 28.8506 32.9729 29.3709C32.5796 29.9555 31.3892 31.347 31.0214 31.7627C30.9733 31.8176 30.9078 31.8831 30.8685 31.8831C30.8332 31.8831 30.224 31.6323 30.0395 31.5521C25.8165 29.7177 22.611 25.3064 22.1715 24.5625C22.1087 24.4555 22.1061 24.407 22.1056 24.407C22.121 24.3503 22.263 24.208 22.3363 24.1345C22.5507 23.9224 22.783 23.6427 23.0078 23.3722C23.1142 23.244 23.2208 23.1157 23.3255 22.9947C23.6516 22.6153 23.7968 22.3208 23.9651 21.9796L24.0533 21.8023C24.4642 20.9858 24.1132 20.2968 23.9998 20.0743C23.9067 19.8881 22.2444 15.8764 22.0677 15.4549C21.6427 14.4378 21.0812 13.9643 20.3008 13.9643C20.2284 13.9643 20.3008 13.9643 19.9971 13.9771C19.6274 13.9927 17.6138 14.2578 16.7235 14.819C15.7793 15.4142 14.1821 17.3116 14.1821 20.6483C14.1821 23.6515 16.0879 26.487 16.9061 27.5654C16.9265 27.5926 16.9638 27.6478 17.018 27.7271C20.1516 32.3034 24.058 35.6949 28.0181 37.2768C31.8305 38.7997 33.6358 38.9757 34.6622 38.9757C34.6623 38.9757 34.6623 38.9757 34.6623 38.9757C35.0936 38.9757 35.4388 38.9419 35.7434 38.9119L35.9366 38.8935C37.2536 38.7767 40.1479 37.277 40.8062 35.4475C41.3248 34.0065 41.4616 32.4321 41.1166 31.8607C40.8802 31.4722 40.4729 31.2767 39.9573 31.0291Z" fill="#00883D"/>
<path d="M27.4795 0C12.8547 0 0.956424 11.8088 0.956424 26.3238C0.956424 31.0184 2.2128 35.6139 4.59283 39.6358L0.0373723 53.0736C-0.0474849 53.3241 0.015632 53.6011 0.20095 53.7898C0.334723 53.9264 0.516184 54 0.701502 54C0.772509 54 0.844041 53.9893 0.91382 53.967L14.9258 49.5145C18.7601 51.5632 23.0938 52.6446 27.4797 52.6446C42.1032 52.6447 54.0002 40.8372 54.0002 26.3238C54.0002 11.8088 42.1032 0 27.4795 0ZM27.4795 47.1613C23.3526 47.1613 19.3553 45.9696 15.9193 43.7149C15.8038 43.639 15.6697 43.6001 15.5347 43.6001C15.4633 43.6001 15.3918 43.611 15.3222 43.6331L8.30305 45.8642L10.5689 39.1793C10.6422 38.9629 10.6056 38.7243 10.4706 38.5399C7.85405 34.9647 6.47091 30.7406 6.47091 26.3238C6.47091 14.8325 15.8953 5.48345 27.4794 5.48345C39.062 5.48345 48.4854 14.8325 48.4854 26.3238C48.4855 37.8137 39.0624 47.1613 27.4795 47.1613Z" fill="#00883D"/>
</svg>
